<svg xmlns="http://www.w3.org/2000/svg" viewBox="0 0 23 23" height="23" width="23"><title>alpine-hut_15.svg</title><rect fill="none" x="0" y="0" width="23" height="23"></rect><rect x="1" y="1" rx="10.5" ry="10.5" width="21" height="21" stroke="#fff" style="stroke-linejoin:round;stroke-miterlimit:4;" fill="#fff" stroke-width="2"></rect><rect x="1" y="1" width="21" height="21" rx="10.5" ry="10.5" fill="#676bdb"></rect><path fill="#fff" transform="translate(4 4)" d="M7.5,1.07,0,5.36V7.5l1.61-.7V15h1.6V6.11L7.5,4.29l4.29,1.82V15h1.6V6.8L15,7.5V5.36ZM5.89,6.43c-.61,0-1.6,1.37-1.6,3.21s1.07,2.15,1.07,2.15V15H6.43V11.79S7.5,11.48,7.5,9.64,6.5,6.43,5.89,6.43Zm2.68,0V15H9.64V11.79h1.07V10.71C10.71,8.57,9.64,6.43,8.57,6.43Z"></path></svg>