<svg xmlns="http://www.w3.org/2000/svg" viewBox="0 0 21 21" height="21" width="21"><title>america_football_11.svg</title><rect fill="none" x="0" y="0" width="21" height="21"></rect><rect x="2" y="2" rx="9.5" ry="9.5" width="17" height="17" stroke="#ffffff" style="stroke-linejoin:round;stroke-miterlimit:4;" fill="#ffffff" stroke-width="2"></rect><rect x="2" y="2" width="17" height="17" rx="9.5" ry="9.5" fill="#695a5a"></rect><path fill="#fff" transform="translate(5 5)" d="M5.53,2C2.47,2,1,5.5,1,5.5S2.47,9,5.53,9S10,5.5,10,5.5S8.6,2,5.53,2z M7,6H4C3.7239,6,3.5,5.7761,3.5,5.5S3.7239,5,4,5h3
	c0.2761,0,0.5,0.2239,0.5,0.5S7.2761,6,7,6z"></path></svg>