<svg xmlns="http://www.w3.org/2000/svg" viewBox="0 0 23 23" height="23" width="23"><title>archaeological-site_15.svg</title><rect fill="none" x="0" y="0" width="23" height="23"></rect><rect x="1" y="1" rx="10.5" ry="10.5" width="21" height="21" stroke="#ffffff" style="stroke-linejoin:round;stroke-miterlimit:4;" fill="#ffffff" stroke-width="2"></rect><rect x="1" y="1" width="21" height="21" rx="10.5" ry="10.5" fill="#8f8d8d"></rect><path fill="#ffffff" transform="translate(4 4)" d="M3.21,0V1.07H4.29c.64,0,.9,1.12,1,2a3.7,3.7,0,0,0-2.91-.93A2.33,2.33,0,0,0,.54,4.55a4.31,4.31,0,0,0,.9,2.52A32.24,32.24,0,0,0,3.52,9.61a8.27,8.27,0,0,0,1.84,3.52v.8l-1.07.53V15h6.42v-.54l-1.07-.53v-.8a8.27,8.27,0,0,0,1.84-3.52,32.24,32.24,0,0,0,2.08-2.54,4.31,4.31,0,0,0,.9-2.52,2.33,2.33,0,0,0-1.84-2.37,3.7,3.7,0,0,0-2.91.93c.1-.92.36-2,1-2h1.08V0ZM2.54,3.25A3.13,3.13,0,0,1,5.05,4.32c-1.19.15-1.84,1.2-1.84,3.18v.1Q2.67,7,2.31,6.46a3.14,3.14,0,0,1-.7-1.91A1.15,1.15,0,0,1,2.54,3.25Zm9.38,0a1.63,1.63,0,0,1,.54,0,1.15,1.15,0,0,1,.93,1.3,3.14,3.14,0,0,1-.7,1.91q-.36.51-.9,1.14V7.5c0-2-.65-3-1.84-3.18A3.76,3.76,0,0,1,11.92,3.25Z"></path></svg>