<svg xmlns="http://www.w3.org/2000/svg" viewBox="0 0 23 23" height="23" width="23"><title>attraction_11.svg</title><rect fill="none" x="0" y="0" width="23" height="23"></rect><rect x="1" y="1" rx="10.5" ry="10.5" width="21" height="21" stroke="#ffffff" style="stroke-linejoin:round;stroke-miterlimit:4;" fill="#ffffff" stroke-width="2"></rect><rect x="1" y="1" width="21" height="21" rx="10.5" ry="10.5" fill="#8f8d8d"></rect><path fill="#ffffff" transform="translate(4 4)" d="M8.121,8.608c-.474.444-.782.444-1.242,0-.046.132-.083.268-.138.4a2.057,2.057,0,0,1-3.924-.5,1.979,1.979,0,0,1,.438-1.6c.265-.324.546-.636.828-.946a1.751,1.751,0,0,1,.9-.518.223.223,0,0,0,.11-.068c.086-.1.164-.207.248-.308a.877.877,0,0,1,1.079-.233.886.886,0,0,1,.464.994l-.018.081c-.054.254-.054.254.091.491a.6.6,0,0,1,1.075,0c.043-.072.084-.133.117-.2a.16.16,0,0,0,.013-.094C8.145,6,8.119,5.886,8.1,5.774a.878.878,0,0,1,1.513-.746c.1.114.192.239.291.355a.185.185,0,0,0,.095.06,1.809,1.809,0,0,1,1,.613c.222.261.457.511.679.772a1.977,1.977,0,0,1,.4,2.064,1.977,1.977,0,0,1-1.6,1.337A2.057,2.057,0,0,1,8.16,8.751Zm2.016.959A1.37,1.37,0,1,0,8.773,8.193,1.369,1.369,0,0,0,10.137,9.567Zm-5.286,0A1.371,1.371,0,1,0,3.481,8.19,1.371,1.371,0,0,0,4.851,9.569ZM7.492,8.533a.336.336,0,1,0-.33-.343A.335.335,0,0,0,7.492,8.533Z"></path></svg>