<svg xmlns="http://www.w3.org/2000/svg" viewBox="0 0 27 27" height="27" width="27"><title>attraction_15.svg</title><rect fill="none" x="0" y="0" width="27" height="27"></rect><rect x="1" y="1" rx="12.5" ry="12.5" width="25" height="25" stroke="#ffffff" style="stroke-linejoin:round;stroke-miterlimit:4;" fill="#ffffff" stroke-width="2"></rect><rect x="1" y="1" width="25" height="25" rx="12.5" ry="12.5" fill="#8f8d8d"></rect><path fill="#ffffff" transform="translate(4 4)" d="M10.424,11.147c-.7.661-1.164.661-1.848.007-.068.2-.123.4-.205.588A3.059,3.059,0,0,1,2.536,11a2.946,2.946,0,0,1,.65-2.377c.4-.481.813-.946,1.232-1.407A2.6,2.6,0,0,1,5.76,6.443a.341.341,0,0,0,.164-.1c.128-.148.243-.307.368-.457A1.311,1.311,0,0,1,8.586,7.015c-.009.04-.017.08-.025.12-.081.379-.081.379.135.73a.89.89,0,0,1,1.6,0c.065-.107.126-.2.175-.3a.237.237,0,0,0,.02-.139c-.028-.166-.067-.33-.1-.5a1.307,1.307,0,0,1,2.251-1.111c.151.17.284.355.431.529a.285.285,0,0,0,.142.089,2.683,2.683,0,0,1,1.484.911c.33.388.679.76,1.009,1.148a2.942,2.942,0,0,1,.593,3.071,2.942,2.942,0,0,1-2.385,1.988,3.059,3.059,0,0,1-3.434-2.2Zm3,1.427a2.037,2.037,0,1,0-2.03-2.043A2.038,2.038,0,0,0,13.422,12.574Zm-7.861,0a2.039,2.039,0,1,0-2.037-2.05A2.04,2.04,0,0,0,5.561,12.577Zm3.927-1.54A.5.5,0,1,0,9,10.525.5.5,0,0,0,9.488,11.037Z"></path></svg>