<svg xmlns="http://www.w3.org/2000/svg" viewBox="0 0 23 23" height="23" width="23"><title>bakery_11.svg</title><rect fill="none" x="0" y="0" width="23" height="23"></rect><rect x="1" y="1" rx="10.5" ry="10.5" width="21" height="21" stroke="#ffffff" style="stroke-linejoin:round;stroke-miterlimit:4;" fill="#ffffff" stroke-width="2"></rect><rect x="1" y="1" width="21" height="21" rx="10.5" ry="10.5" fill="#d97200"></rect><path fill="#fff" transform="translate(4 4)" d="M5.368,7.05a3.184,3.184,0,0,0-.951,1.656,2.964,2.964,0,0,0-.054.5c-.006.151.042.314.225.278A.361.361,0,0,0,4.8,9.216,2.635,2.635,0,0,1,6.872,6.758a5.727,5.727,0,0,1,.87-.073c-.321.307-.648.572-.917.887a2.636,2.636,0,0,0-.617,1.515c-.015.168-.009.338.213.348.2.009.224-.144.235-.307A2.5,2.5,0,0,1,8.681,6.922a1.561,1.561,0,0,1,.649.042,6.325,6.325,0,0,1,1.168.5c-.164.034-.331.056-.491.1A2.084,2.084,0,0,0,8.558,9.477c0,.161.009.316.212.328s.221-.133.244-.282a2.081,2.081,0,0,1,1.594-1.637.872.872,0,0,1,.875.3,2.077,2.077,0,0,1,.58,1.688,1.138,1.138,0,0,1-.681.97,4.522,4.522,0,0,1-1.36.369,30.982,30.982,0,0,1-5.354-.033,3.041,3.041,0,0,1-.64-.152,1.461,1.461,0,0,1-.983-2.047,2.562,2.562,0,0,1,.72-1.027A4.542,4.542,0,0,1,5.368,7.05Z"></path><path fill="#fff" transform="translate(4 4)" d="M6.024,3.686c.077.054.163.085.191.144a.25.25,0,0,1-.007.219c-.322.375-.207.691.078,1.03a.993.993,0,0,1-.02,1.287.374.374,0,0,1-.328.1c-.154-.072-.117-.228-.038-.363a.634.634,0,0,0-.073-.883,1.059,1.059,0,0,1-.015-1.36A1.541,1.541,0,0,1,6.024,3.686Z"></path><path fill="#fff" transform="translate(4 4)" d="M7.634,3.686c.077.054.163.085.191.144a.246.246,0,0,1-.008.219c-.321.375-.206.691.079,1.03a.994.994,0,0,1-.02,1.287.374.374,0,0,1-.328.1c-.155-.072-.117-.228-.038-.363a.635.635,0,0,0-.074-.883,1.061,1.061,0,0,1-.015-1.36A1.5,1.5,0,0,1,7.634,3.686Z"></path><path fill="#fff" transform="translate(4 4)" d="M9.243,3.686c.077.054.163.085.191.144a.246.246,0,0,1-.007.219c-.322.375-.207.691.079,1.03a.994.994,0,0,1-.021,1.287.374.374,0,0,1-.328.1C9,6.392,9.041,6.236,9.12,6.1a.635.635,0,0,0-.074-.883,1.061,1.061,0,0,1-.015-1.36A1.541,1.541,0,0,1,9.243,3.686Z"></path></svg>