<svg xmlns="http://www.w3.org/2000/svg" viewBox="0 0 23 23" height="23" width="23"><title>bank_15.svg</title><rect fill="none" x="0" y="0" width="23" height="23"></rect><rect x="1" y="1" rx="10.5" ry="10.5" width="21" height="21" stroke="#ffffff" style="stroke-linejoin:round;stroke-miterlimit:4;" fill="#ffffff" stroke-width="2"></rect><rect x="1" y="1" width="21" height="21" rx="10.5" ry="10.5" fill="#4f9e28"></rect><path fill="#fff" transform="translate(4 4)" d="M0,2.14v7.5a1,1,0,0,0,1.07,1.07H13.93A1,1,0,0,0,15,9.64V2.14ZM3.21,3.21h8.58a2.3,2.3,0,0,0,2.14,2.15V7.5a2.3,2.3,0,0,0-2.14,2.14H3.21A2.3,2.3,0,0,0,1.07,7.5V5.36A2.3,2.3,0,0,0,3.21,3.21ZM7.5,4.29c-1.77,0-3.21,1-3.21,2.14S5.73,8.57,7.5,8.57s3.21-1,3.21-2.14S9.27,4.29,7.5,4.29Zm-7.5,7c0,1.21.48,1.61,1.07,1.61H13.93c.59,0,1.07-.48,1.07-1.61a1.51,1.51,0,0,1-1.07.54H1.07A1.55,1.55,0,0,1,0,11.25Z"></path></svg>