<svg xmlns="http://www.w3.org/2000/svg" viewBox="0 0 19 19" height="19" width="19"><title>bar_11.svg</title><rect fill="none" x="0" y="0" width="19" height="19"></rect><rect x="1" y="1" rx="8.5" ry="8.5" width="17" height="17" stroke="#ffffff" style="stroke-linejoin:round;stroke-miterlimit:4;" fill="#ffffff" stroke-width="2"></rect><rect x="1" y="1" width="17" height="17" rx="8.5" ry="8.5" fill="#d97200"></rect><path fill="#fff" transform="translate(4 4)" d="M5.4883,1C4.9759,1,0.5,1,1,1.5L5,6v2.5C5,9,2.5,9,2.5,10h6
	C8.5,9,6,9,6,8.5V6l4-4.5C10.5,1,6.0006,1,5.4883,1z M2.5,2h6l-1,1h-4L2.5,2z"></path></svg>