<svg xmlns="http://www.w3.org/2000/svg" viewBox="0 0 23 23" height="23" width="23"><title>beauty_15.svg</title><rect fill="none" x="0" y="0" width="23" height="23"></rect><rect x="1" y="1" rx="10.5" ry="10.5" width="21" height="21" stroke="#ffffff" style="stroke-linejoin:round;stroke-miterlimit:4;" fill="#ffffff" stroke-width="2"></rect><rect x="1" y="1" width="21" height="21" rx="10.5" ry="10.5" fill="#4f4f4f"></rect><path fill="#fff" transform="translate(4 4)" d="M6.43,1.07c-2.7,0-5.36,2.18-5.36,3.75A1.74,1.74,0,0,0,3.21,6.43C4.83,6,4.29,3.21,7.5,3.21c1.6,0,4,1,6.43,2.68C11.79,2.12,9.64,1.07,6.43,1.07Zm7.5,6.43c-1.07,0-3.22,1.07-6.43,1.07S2.13,8.11,1.07,7.5a4.84,4.84,0,0,0,.27,5.36c0-2.15,1.24-3.22,1.87-3.22-.36,1.28-.25,3.27,1.08,4.29a3.21,3.21,0,0,1,1.6-3.75A4.44,4.44,0,0,0,7,14.2a4.85,4.85,0,0,1,1.61-4,5.8,5.8,0,0,0,1.61,3.75,5.1,5.1,0,0,1,1.07-4.29,3.46,3.46,0,0,0,1.88,3.22A6.59,6.59,0,0,1,13.93,7.5Z"></path></svg>