<svg xmlns="http://www.w3.org/2000/svg" viewBox="0 0 23 23" height="23" width="23"><title>biergarten_15.svg</title><rect fill="none" x="0" y="0" width="23" height="23"></rect><rect x="1" y="1" rx="10.5" ry="10.5" width="21" height="21" stroke="#ffffff" style="stroke-linejoin:round;stroke-miterlimit:4;" fill="#ffffff" stroke-width="2"></rect><rect x="1" y="1" width="21" height="21" rx="10.5" ry="10.5" fill="#4f4f4f"></rect><path fill="#fff" transform="translate(4 4)" d="M3.21,0A2.3,2.3,0,0,0,1.07,2.14V12.86A3.74,3.74,0,0,1,0,15H11.79a3.73,3.73,0,0,1-1.08-2.14h3.22A1,1,0,0,0,15,11.79V5.36a2.31,2.31,0,0,0-2.14-2.15H10.71V2.14A2,2,0,0,0,8.57,0ZM4.29,1.07H7.5c1.48,0,2.14.38,2.14,1.07-3.21,0-5.51.22-5.35,3.22,0,2.14-2.15,2.14-2.15,0V3.21C2.14,1.61,2.68,1.07,4.29,1.07Zm6.42,3.75h1.08c.73,0,1.6,0,1.6,1.61v4.82H10.71Zm-8.57,8h7.5v1.07H2.14Z"></path></svg>