<svg xmlns="http://www.w3.org/2000/svg" viewBox="0 0 23 23" height="23" width="23"><title>books_15.svg</title><rect fill="none" x="0" y="0" width="23" height="23"></rect><rect x="1" y="1" rx="10.5" ry="10.5" width="21" height="21" stroke="#ffffff" style="stroke-linejoin:round;stroke-miterlimit:4;" fill="#ffffff" stroke-width="2"></rect><rect x="1" y="1" width="21" height="21" rx="10.5" ry="10.5" fill="#4f4f4f"></rect><path fill="#fff" transform="translate(4 4)" d="M2.14,0A2,2,0,0,0,0,2.14,2,2,0,0,0,2.14,4.29H12.86L11.79,3.21H2.14A1,1,0,0,1,1.07,2.14,1,1,0,0,1,2.14,1.07h9.65L12.86,0Zm0,1.88v.53h9.65V1.88ZM4.29,5.36A2,2,0,0,0,2.14,7.5,2,2,0,0,0,4.29,9.64H15L13.93,8.57H4.29a1.07,1.07,0,1,1,0-2.14h9.64L15,5.36Zm0,1.87v.54h9.64V7.23ZM2.14,10.71A2,2,0,0,0,0,12.86,2,2,0,0,0,2.14,15H12.86l-1.07-1.07H2.14a1.07,1.07,0,0,1,0-2.14h9.65l1.07-1.08Zm0,1.88v.54h9.65v-.54Z"></path></svg>