<svg xmlns="http://www.w3.org/2000/svg" viewBox="0 0 23 23" height="23" width="23"><title>buddhist_11.svg</title><rect fill="none" x="0" y="0" width="23" height="23"></rect><rect x="1" y="1" rx="10.5" ry="10.5" width="21" height="21" stroke="#ffffff" style="stroke-linejoin:round;stroke-miterlimit:4;" fill="#ffffff" stroke-width="2"></rect><rect x="1" y="1" width="21" height="21" rx="10.5" ry="10.5" fill="#f2aaa2"></rect><path fill="#ffffff" transform="translate(4 4)" d="M8.194,4.625H6.433a.106.106,0,0,1-.1-.145l.359-.889a.1.1,0,0,1,.1-.066l1.031.009a.107.107,0,0,1,.1.064l.371.88A.106.106,0,0,1,8.194,4.625ZM7.308,2.3l-.28.7H7.6ZM5.578,7.05c-.517.117-2.892.9-3.042,5.533,0,.147.085.273.195.273l9.163.045c.108,0,.2-.112.2-.256.006-.966-.167-4.392-2.886-5.534a.845.845,0,0,0-.319-.064L5.752,7.032A.791.791,0,0,0,5.578,7.05Zm3.428-.832-.418-1a.107.107,0,0,0-.1-.065H6.123a.105.105,0,0,0-.1.066l-.405,1a.105.105,0,0,0,.1.145l3.191,0A.1.1,0,0,0,9.006,6.218Z"></path></svg>