<svg xmlns="http://www.w3.org/2000/svg" viewBox="0 0 23 23" height="23" width="23"><title>buddhist_15.svg</title><rect fill="none" x="0" y="0" width="23" height="23"></rect><rect x="1" y="1" rx="10.5" ry="10.5" width="21" height="21" stroke="#ffffff" style="stroke-linejoin:round;stroke-miterlimit:4;" fill="#ffffff" stroke-width="2"></rect><rect x="1" y="1" width="21" height="21" rx="10.5" ry="10.5" fill="#f2aaa2"></rect><path fill="#ffffff" transform="translate(4 4)" d="M7.5,0C7.24,0,7,.37,7,1.06A6.55,6.55,0,0,0,1.07,7C-.29,7-.31,8,1.07,8A6.45,6.45,0,0,0,7,13.89c0,1.5,1.08,1.45,1.08,0A6.33,6.33,0,0,0,13.89,8c1.5,0,1.46-1.07,0-1.07A6.42,6.42,0,0,0,8,1.06C8,.38,7.77,0,7.5,0ZM7,2.47V6.22L4.32,3.57A5,5,0,0,1,7,2.47ZM8,2.47a5,5,0,0,1,2.64,1.1L8,6.22Zm3.41,1.84A5,5,0,0,1,12.55,7H8.8Zm-7.87,0L6.2,7H2.48A5.18,5.18,0,0,1,3.58,4.34ZM7.5,6.69a.8.8,0,1,1-.8.8A.8.8,0,0,1,7.5,6.69ZM2.48,8H6.26L3.58,10.71A5.09,5.09,0,0,1,2.48,8ZM8.74,8h3.81a5,5,0,0,1-1.13,2.68ZM7,8.8v3.75a5,5,0,0,1-2.64-1.11ZM8,8.8l2.64,2.68A5.09,5.09,0,0,1,8,12.55Z"></path></svg>