<svg xmlns="http://www.w3.org/2000/svg" viewBox="0 0 23 23" height="23" width="23"><title>bus-station_15.svg</title><rect fill="none" x="0" y="0" width="23" height="23"></rect><rect x="1" y="1" rx="10.5" ry="10.5" width="21" height="21" stroke="#ffffff" style="stroke-linejoin:round;stroke-miterlimit:4;" fill="#ffffff" stroke-width="2"></rect><rect x="1" y="1" width="21" height="21" rx="10.5" ry="10.5" fill="#4f4f4f"></rect><path fill="#fff" transform="translate(4 4)" d="M5.36,0C3.21,0,1.07,3.21,1.07,7.5v5.89H2.14c0,.56,0,1.61,1.07,1.61S4.29,14,4.29,13.39h6.42c0,.52,0,1.61,1.08,1.61s1.07-1.09,1.07-1.61h1.07V7.5c0-4.29-2.14-7.5-4.29-7.5ZM4.29,2.14h6.42c.57,0,1.08,2.15,1.08,5.36l-8.58,0C3.21,4.29,3.75,2.14,4.29,2.14ZM3.21,9.91H6.43v1.61H3.21Zm5.36,0h3.22v1.61H8.57Z"></path></svg>