<svg xmlns="http://www.w3.org/2000/svg" viewBox="0 0 23 23" height="23" width="23"><title>bus-stop_11.svg</title><rect fill="none" x="0" y="0" width="23" height="23"></rect><rect x="1" y="1" rx="10.5" ry="10.5" width="21" height="21" stroke="#ffffff" style="stroke-linejoin:round;stroke-miterlimit:4;" fill="#ffffff" stroke-width="2"></rect><rect x="1" y="1" width="21" height="21" rx="10.5" ry="10.5" fill="#4f4f4f"></rect><path fill="#fff" transform="translate(4 4)" d="M3,0,1.5,1.5v12h1S2.64,15,3.7,15s1.18-1.5,1.18-1.5h5.25S10.3,15,11.3,15c1.22,0,1.22-1.5,1.22-1.5h1V1.5L12,0ZM4.5,1.5h6V3h-6ZM3,4.5h9V9H3Zm0,6H4.5V12H3Zm7.5,0H12V12H10.5Z"></path></svg>