<svg xmlns="http://www.w3.org/2000/svg" viewBox="0 0 23 23" height="23" width="23"><title>campsite_15.svg</title><rect fill="none" x="0" y="0" width="23" height="23"></rect><rect x="1" y="1" rx="10.5" ry="10.5" width="21" height="21" stroke="#ffffff" style="stroke-linejoin:round;stroke-miterlimit:4;" fill="#ffffff" stroke-width="2"></rect><rect x="1" y="1" width="21" height="21" rx="10.5" ry="10.5" fill="#8f8d8d"></rect><path fill="#ffffff" transform="translate(4 4)" d="M7,1.5
	l-5.5,9H1c-1,0-1,1-1,1v1c0,0,0,1,1,1h13c1,0,1-1,1-1v-1c0,0,0-1-1-1h-0.5L8,1.5C7.8,1.1,7.2,1.1,7,1.5z M7.5,5l3.2,5.5H4.2L7.5,5z"></path></svg>