<svg xmlns="http://www.w3.org/2000/svg" viewBox="0 0 23 23" height="23" width="23"><title>car_15.svg</title><rect fill="none" x="0" y="0" width="23" height="23"></rect><rect x="1" y="1" rx="10.5" ry="10.5" width="21" height="21" stroke="#ffffff" style="stroke-linejoin:round;stroke-miterlimit:4;" fill="#ffffff" stroke-width="2"></rect><rect x="1" y="1" width="21" height="21" rx="10.5" ry="10.5" fill="#8f8d8d"></rect><path fill="#ffffff" transform="translate(4 4)" d="M3.21,1.07,1.89,5.36A1.9,1.9,0,0,0,0,7.5v4.29H2.14v1.07a1,1,0,0,0,1.07,1.07,1.05,1.05,0,0,0,1.08-1.07V11.79l6.42,0v1.11a1.08,1.08,0,0,0,2.15,0V11.79H15V7.5a1.94,1.94,0,0,0-2.14-2.14L11.79,1.07ZM4.29,2.68h6.42l.65,2.68H3.54ZM3.21,7.5A1.07,1.07,0,1,1,2.14,8.57,1.08,1.08,0,0,1,3.21,7.5Zm8.58,0a1.07,1.07,0,1,1-1.08,1.07A1.07,1.07,0,0,1,11.79,7.5Z"></path></svg>