<svg xmlns="http://www.w3.org/2000/svg" viewBox="0 0 23 23" height="23" width="23"><title>caravan_15.svg</title><rect fill="none" x="0" y="0" width="23" height="23"></rect><rect x="1" y="1" rx="10.5" ry="10.5" width="21" height="21" stroke="#ffffff" style="stroke-linejoin:round;stroke-miterlimit:4;" fill="#ffffff" stroke-width="2"></rect><rect x="1" y="1" width="21" height="21" rx="10.5" ry="10.5" fill="#8f8d8d"></rect><path fill="#ffffff" transform="translate(4 4)" d="M2.14,2.14A2.3,2.3,0,0,0,0,4.29V8.57a2.3,2.3,0,0,0,2.14,2.14H3.28a2.66,2.66,0,0,1,5.22,0H15a1,1,0,0,0-1.07-1.07H12.32V4.29a2.37,2.37,0,0,0-2.14-2.15Zm.91,2.15a.34.34,0,0,1,.16,0H5.36a1.07,1.07,0,0,1,0,2.14H3.21A1,1,0,0,1,2.14,5.36,1,1,0,0,1,3.05,4.29Zm5.52,0h.54a1.07,1.07,0,0,1,0,2.14H8.57a1.07,1.07,0,0,1,0-2.14ZM5.89,9.64A1.61,1.61,0,1,0,7.5,11.25,1.6,1.6,0,0,0,5.89,9.64Z"></path></svg>