<svg xmlns="http://www.w3.org/2000/svg" viewBox="0 0 23 23" height="23" width="23"><title>castle-stately_15.svg</title><rect fill="none" x="0" y="0" width="23" height="23"></rect><rect x="1" y="1" rx="10.5" ry="10.5" width="21" height="21" stroke="#ffffff" style="stroke-linejoin:round;stroke-miterlimit:4;" fill="#ffffff" stroke-width="2"></rect><rect x="1" y="1" width="21" height="21" rx="10.5" ry="10.5" fill="#4f4f4f"></rect><path fill="#fff" transform="translate(4 4)" d="M1.07,1.07,0,2.68v.53H5.36V2.68L4.29,1.07Zm9.64,0L9.64,2.68v.53H15V2.68L13.93,1.07ZM0,4.29v9.64H5.36c0-1.07,0-3.22,2.14-3.22s2.14,2.15,2.14,3.22H15V4.29H9.64V6.43H5.36V4.29ZM2.14,7.5c0-.25,0-1.07.54-1.07s.53.8.53,1.07V8.57H2.14Zm9.65,0c0-.25,0-1.07.53-1.07s.54.8.54,1.07V8.57H11.79Z"></path></svg>