<svg xmlns="http://www.w3.org/2000/svg" viewBox="0 0 23 23" height="23" width="23"><title>castle-manor_15.svg</title><rect fill="none" x="0" y="0" width="23" height="23"></rect><rect x="1" y="1" rx="10.5" ry="10.5" width="21" height="21" stroke="#ffffff" style="stroke-linejoin:round;stroke-miterlimit:4;" fill="#ffffff" stroke-width="2"></rect><rect x="1" y="1" width="21" height="21" rx="10.5" ry="10.5" fill="#8f8d8d"></rect><path fill="#ffffff" transform="translate(4 4)" d="M2.14,2.14,0,4.82v.54H15V4.82L12.86,2.14ZM0,6.43v6.43H5.36c0-1.07,0-3.22,2.14-3.22s2.14,2.15,2.14,3.22H15V6.43ZM2.68,8.57c.53,0,.55.73.53,1.07v1.07H2.14V9.64C2.14,9.3,2.14,8.57,2.68,8.57Zm9.64,0c.54,0,.56.73.54,1.07v1.07H11.79V9.64C11.79,9.3,11.79,8.57,12.32,8.57Z"></path></svg>