<svg xmlns="http://www.w3.org/2000/svg" viewBox="0 0 23 23" height="23" width="23"><title>castle-fortress_15.svg</title><rect fill="none" x="0" y="0" width="23" height="23"></rect><rect x="1" y="1" rx="10.5" ry="10.5" width="21" height="21" stroke="#ffffff" style="stroke-linejoin:round;stroke-miterlimit:4;" fill="#ffffff" stroke-width="2"></rect><rect x="1" y="1" width="21" height="21" rx="10.5" ry="10.5" fill="#8f8d8d"></rect><path fill="#ffffff" transform="translate(4 4)" d="M0,1.07V3.21H5.36V1.07H4.29V2.14H3.21V1.07H2.14V2.14H1.07V1.07Zm9.64,0V3.21H15V1.07H13.93V2.14H12.86V1.07H11.79V2.14H10.71V1.07ZM0,4.29v9.64H5.36c0-1.07,0-3.22,2.14-3.22s2.14,2.15,2.14,3.22H15V4.29H9.64V6.43H5.36V4.29ZM2.14,6.43H3.21V7.5L2.68,8.57,2.14,7.5Zm9.65,0h1.07V7.5l-.54,1.07L11.79,7.5Z"></path></svg>