<svg xmlns="http://www.w3.org/2000/svg" viewBox="0 0 23 23" height="23" width="23"><title>castle-palace_15.svg</title><rect fill="none" x="0" y="0" width="23" height="23"></rect><rect x="1" y="1" rx="10.5" ry="10.5" width="21" height="21" stroke="#ffffff" style="stroke-linejoin:round;stroke-miterlimit:4;" fill="#ffffff" stroke-width="2"></rect><rect x="1" y="1" width="21" height="21" rx="10.5" ry="10.5" fill="#4f4f4f"></rect><path fill="#fff" transform="translate(4 4)" d="M7.5,1.07S4.29,2.14,4.29,4.29h6.42C10.71,2.14,7.5,1.07,7.5,1.07ZM1.61,2.14A3.69,3.69,0,0,0,0,4.82v.54H3.21V4.82A3.69,3.69,0,0,0,1.61,2.14Zm11.78,0a3.69,3.69,0,0,0-1.6,2.68v.54H15V4.82A3.69,3.69,0,0,0,13.39,2.14ZM4.29,5.36V7.5H3.21V6.43H0v7.5H5.36c0-1.07,0-3.22,2.14-3.22s2.14,2.15,2.14,3.22H15V6.43H11.79V7.5H10.71V5.36Zm1.6,1.07c.54,0,.54.84.54,1.07V8.57H5.36V7.5C5.36,7.21,5.36,6.43,5.89,6.43Zm3.22,0c.53,0,.53.84.53,1.07V8.57H8.57V7.5C8.57,7.21,8.57,6.43,9.11,6.43ZM1.61,7.5c.55,0,.53.72.53,1.07V9.64H1.07V8.57C1.07,8.22,1.09,7.5,1.61,7.5Zm11.78,0c.55,0,.54.72.54,1.07V9.64H12.86V8.57C12.86,8.22,12.87,7.5,13.39,7.5Z"></path></svg>