<svg xmlns="http://www.w3.org/2000/svg" viewBox="0 0 23 23" height="23" width="23"><title>cattle-grid_11.svg</title><rect fill="none" x="0" y="0" width="23" height="23"></rect><rect x="1" y="1" rx="10.5" ry="10.5" width="21" height="21" stroke="#ffffff" style="stroke-linejoin:round;stroke-miterlimit:4;" fill="#ffffff" stroke-width="2"></rect><rect x="1" y="1" width="21" height="21" rx="10.5" ry="10.5" fill="#4f4f4f"></rect><path fill="#fff" transform="translate(4 4)" d="M.75,2.25A.73.73,0,0,0,0,3v9H1.5V3A.73.73,0,0,0,.75,2.25ZM1.5,12h12l-.75-1.5H2.25Zm12,0H15V3a.75.75,0,0,0-1.5,0ZM5.25,4.5,4.5,6h6L9.75,4.5Zm-1.5,3L3,9h9l-.75-1.5Z"></path></svg>