<svg xmlns="http://www.w3.org/2000/svg" viewBox="0 0 23 23" height="23" width="23"><title>cattle-grid_15.svg</title><rect fill="none" x="0" y="0" width="23" height="23"></rect><rect x="1" y="1" rx="10.5" ry="10.5" width="21" height="21" stroke="#ffffff" style="stroke-linejoin:round;stroke-miterlimit:4;" fill="#ffffff" stroke-width="2"></rect><rect x="1" y="1" width="21" height="21" rx="10.5" ry="10.5" fill="#4f4f4f"></rect><path fill="#fff" transform="translate(4 4)" d="M.9,3.21A1,1,0,0,0,0,4.29v7.5H2.14V4.29A1.05,1.05,0,0,0,1.07,3.21Zm1.24,8.58H12.86l-.54-1.08H2.68Zm10.72,0H15V4.29a1.05,1.05,0,0,0-1.07-1.08h-.17a1,1,0,0,0-.9,1.08Zm-8-5.36L4.29,7.5h6.42l-.53-1.07ZM3.75,8.57,3.21,9.64h8.58l-.54-1.07Z"></path></svg>