<svg xmlns="http://www.w3.org/2000/svg" viewBox="0 0 23 23" height="23" width="23"><title>charging-station_15.svg</title><rect fill="none" x="0" y="0" width="23" height="23"></rect><rect x="1" y="1" rx="10.5" ry="10.5" width="21" height="21" stroke="#ffffff" style="stroke-linejoin:round;stroke-miterlimit:4;" fill="#ffffff" stroke-width="2"></rect><rect x="1" y="1" width="21" height="21" rx="10.5" ry="10.5" fill="#4f4f4f"></rect><path fill="#fff" transform="translate(4 4)" d="M2.14,1.07A2,2,0,0,0,0,3.21V15H7.5V6.56a.83.83,0,0,1,.94.94v4.29a2.19,2.19,0,0,0,2.27,2.27A2.19,2.19,0,0,0,13,11.79V7.5s1.49,0,1.47-3.18h-.8V2.18a.4.4,0,1,0-.8,0V4.29H11.79V2.14a.41.41,0,1,0-.81,0V4.29h-.8c0,3.19,1.47,3.21,1.47,3.21v4.29a.87.87,0,0,1-.94.93.89.89,0,0,1-.93-.93V7.5A2.33,2.33,0,0,0,7.5,5.22v-2A2,2,0,0,0,5.36,1.07ZM3.21,4.29H5.36L4,6.43H5.63L2.68,10.71H2.14L3.21,7.5H1.88Z"></path></svg>