<svg xmlns="http://www.w3.org/2000/svg" viewBox="0 0 23 23" height="23" width="23"><title>clinic_11.svg</title><rect fill="none" x="0" y="0" width="23" height="23"></rect><rect x="1" y="1" rx="10.5" ry="10.5" width="21" height="21" stroke="#ffffff" style="stroke-linejoin:round;stroke-miterlimit:4;" fill="#ffffff" stroke-width="2"></rect><rect x="1" y="1" width="21" height="21" rx="10.5" ry="10.5" fill="#ba272a"></rect><path fill="#fff" transform="translate(4 4)" d="M9.248,2.392H8.975A1.388,1.388,0,0,0,7.5,1.111,1.388,1.388,0,0,0,6.025,2.392H5.752a.452.452,0,0,0-.452.452v.512a.452.452,0,0,0,.452.452h3.5A.452.452,0,0,0,9.7,3.356V2.844A.452.452,0,0,0,9.248,2.392Zm.835,1.956H4.917a.451.451,0,0,0-.451.452v8.637a.451.451,0,0,0,.451.452h5.166a.451.451,0,0,0,.451-.452V4.8A.451.451,0,0,0,10.083,4.348Zm-.535,6.168a.271.271,0,0,1-.271.271H5.723a.271.271,0,0,1-.271-.271V7.721a.271.271,0,0,1,.271-.272H9.277a.271.271,0,0,1,.271.272ZM8.587,8.764H7.854V8.031a.354.354,0,1,0-.708,0v.733H6.413a.354.354,0,0,0,0,.708h.733v.734a.354.354,0,1,0,.708,0V9.472h.733a.354.354,0,0,0,0-.708Z"></path></svg>