<svg xmlns="http://www.w3.org/2000/svg" viewBox="0 0 27 27" height="27" width="27"><title>clinic_15.svg</title><rect fill="none" x="0" y="0" width="27" height="27"></rect><rect x="1" y="1" rx="12.5" ry="12.5" width="25" height="25" stroke="#ffffff" style="stroke-linejoin:round;stroke-miterlimit:4;" fill="#ffffff" stroke-width="2"></rect><rect x="1" y="1" width="25" height="25" rx="12.5" ry="12.5" fill="#ba272a"></rect><path fill="#fff" transform="translate(4 4)" d="M11.717,3.022h-.346A1.761,1.761,0,0,0,9.5,1.4,1.761,1.761,0,0,0,7.629,3.022H7.283A.572.572,0,0,0,6.71,3.6v.649a.573.573,0,0,0,.573.574h4.434a.573.573,0,0,0,.573-.574V3.6A.572.572,0,0,0,11.717,3.022ZM12.775,5.5H6.225a.573.573,0,0,0-.574.573V17.03a.573.573,0,0,0,.574.573h6.55a.573.573,0,0,0,.574-.573V6.075A.573.573,0,0,0,12.775,5.5ZM12.1,13.325a.345.345,0,0,1-.345.344H7.247a.345.345,0,0,1-.345-.344V9.78a.345.345,0,0,1,.345-.344h4.506a.345.345,0,0,1,.345.344ZM10.879,11.1h-.93v-.93a.449.449,0,0,0-.9,0v.93h-.93a.449.449,0,1,0,0,.9h.93v.93a.449.449,0,1,0,.9,0V12h.93a.449.449,0,0,0,0-.9Z"></path></svg>