<svg xmlns="http://www.w3.org/2000/svg" viewBox="0 0 23 23" height="23" width="23"><title>confectionery_15.svg</title><rect fill="none" x="0" y="0" width="23" height="23"></rect><rect x="1" y="1" rx="10.5" ry="10.5" width="21" height="21" stroke="#ffffff" style="stroke-linejoin:round;stroke-miterlimit:4;" fill="#ffffff" stroke-width="2"></rect><rect x="1" y="1" width="21" height="21" rx="10.5" ry="10.5" fill="#4f4f4f"></rect><path fill="#fff" transform="translate(4 4)" d="M7.5,0A2.15,2.15,0,1,0,9.64,2.14,2.14,2.14,0,0,0,7.5,0ZM4.29,5.09A3.18,3.18,0,0,0,1.07,7.5H2.41A1.86,1.86,0,0,1,4.29,6.43C5.36,6.43,6.43,7.5,7.5,7.5s2.14-1.07,3.21-1.07A1.8,1.8,0,0,1,12.59,7.5h1.34a3.14,3.14,0,0,0-3.22-2.41c-1.58,0-2.14,1.07-3.17,1.07S5.88,5.09,4.29,5.09ZM1.07,8.57l2.14,5.36C4.29,15,6.43,15,7.5,15s3.21,0,4.29-1.07l2.14-5.36c-1.07,0-1.07,1.07-2.14,1.07S10.71,8.57,9.64,8.57,8.57,9.64,7.5,9.64,6.43,8.57,5.36,8.57,4.29,9.64,3.21,9.64,2.14,8.57,1.07,8.57Z"></path></svg>