<svg xmlns="http://www.w3.org/2000/svg" viewBox="0 0 23 23" height="23" width="23"><title>copyshop_15.svg</title><rect fill="none" x="0" y="0" width="23" height="23"></rect><rect x="1" y="1" rx="10.5" ry="10.5" width="21" height="21" stroke="#ffffff" style="stroke-linejoin:round;stroke-miterlimit:4;" fill="#ffffff" stroke-width="2"></rect><rect x="1" y="1" width="21" height="21" rx="10.5" ry="10.5" fill="#4f4f4f"></rect><path fill="#fff" transform="translate(4 4)" d="M9.68,0,1.07,0V10.71H4.29V9.64H2.14V1.07H8.57V3.21H9.68ZM3.21,2.14v.54H7.5V2.14Zm0,1.07v.54H4.29V3.21Zm0,1.08v.53H4.29V4.29Zm2.15,0V15h8.57V7.8L10.41,4.29ZM3.21,5.36v.53H4.29V5.36Zm3.22,0H9.64V8.57h3.22v5.36H6.43Zm4.28.73L12.12,7.5H10.71Zm-7.5.34V7H4.29V6.43Zm4.29,0V7H8.57V6.43ZM3.21,7.5V8H4.29V7.5Zm4.29,0V8H8.57V7.5Zm0,1.07v.54H8.57V8.57Zm0,1.07v.54h4.29V9.64Zm0,1.07v.54h4.29v-.54Zm0,1.08v.53h4.29v-.53Z"></path></svg>