<svg xmlns="http://www.w3.org/2000/svg" viewBox="0 0 23 23" height="23" width="23"><title>courthouse_15.svg</title><rect fill="none" x="0" y="0" width="23" height="23"></rect><rect x="1" y="1" rx="10.5" ry="10.5" width="21" height="21" stroke="#ffffff" style="stroke-linejoin:round;stroke-miterlimit:4;" fill="#ffffff" stroke-width="2"></rect><rect x="1" y="1" width="21" height="21" rx="10.5" ry="10.5" fill="#a5bec2"></rect><path fill="#fff" transform="translate(4 4)" d="M7.5,0A1,1,0,0,0,6.43,1.07l-4,1.07V3.21L0,8.57c0,1.07.85,2.14,2.68,2.14S5.36,9.64,5.36,8.57L3,3.21H6.43V13.93H2.14L1.07,15H13.93l-1.07-1.07H8.57V3.21h3.48L9.64,8.57c0,1.07.83,2.14,2.68,2.14S15,9.64,15,8.57L12.59,3.21V2.14l-4-1.07A1,1,0,0,0,7.5,0ZM2.68,4.29,4.55,8.57H.8Zm9.64,0L14.2,8.57H10.45Z"></path></svg>