<svg xmlns="http://www.w3.org/2000/svg" viewBox="0 0 23 23" height="23" width="23"><title>courthouse_11.svg</title><rect fill="none" x="0" y="0" width="23" height="23"></rect><rect x="1" y="1" rx="10.5" ry="10.5" width="21" height="21" stroke="#ffffff" style="stroke-linejoin:round;stroke-miterlimit:4;" fill="#ffffff" stroke-width="2"></rect><rect x="1" y="1" width="21" height="21" rx="10.5" ry="10.5" fill="#a5bec2"></rect><path fill="#fff" transform="translate(4 4)" d="M7.5,0A1.15,1.15,0,0,0,6.38,1.13L1.93,2.18V3L0,8.25A2,2,0,0,0,2.25,10.5,2,2,0,0,0,4.5,8.25L2.49,3H6.38V13.5H3L1.5,15h12L12,13.5H8.63V3h3.83l-2,5.25a2,2,0,0,0,2.25,2.25A2,2,0,0,0,15,8.25L13.07,3V2.14l-4.44-1A1.16,1.16,0,0,0,7.5,0ZM2.25,4.05,3.9,8.25H.6Zm10.5,0,1.65,4.2H11.1Z"></path></svg>