<svg xmlns="http://www.w3.org/2000/svg" viewBox="0 0 23 23" height="23" width="23"><title>dentist_15.svg</title><rect fill="none" x="0" y="0" width="23" height="23"></rect><rect x="1" y="1" rx="10.5" ry="10.5" width="21" height="21" stroke="#ffffff" style="stroke-linejoin:round;stroke-miterlimit:4;" fill="#ffffff" stroke-width="2"></rect><rect x="1" y="1" width="21" height="21" rx="10.5" ry="10.5" fill="#ba272a"></rect><path fill="#fff" transform="translate(4 4)" d="M7.5,8.57c2.14,0,2.14,1.07,2.14,3.22,0,1.07-1.08,3.21,0,3.21s1.88-1.22,2.15-3.21a23,23,0,0,0,0-4.29c0-2.14,1.07-4.29,1.07-5.36A2.15,2.15,0,0,0,11.79,0C9.64,0,9.64,1.07,7.5,1.07S5.36,0,3.21,0A2.15,2.15,0,0,0,2.14,2.14c0,1.07,1.07,3.22,1.07,5.36,0,1.07-.13,2.76,0,4.29S4.29,15,5.36,15s0-2.14,0-3.21C5.36,9.64,5.36,8.57,7.5,8.57Z"></path></svg>