<svg xmlns="http://www.w3.org/2000/svg" viewBox="0 0 23 23" height="23" width="23"><title>doctor_15.svg</title><rect fill="none" x="0" y="0" width="23" height="23"></rect><rect x="1" y="1" rx="10.5" ry="10.5" width="21" height="21" stroke="#ffffff" style="stroke-linejoin:round;stroke-miterlimit:4;" fill="#ffffff" stroke-width="2"></rect><rect x="1" y="1" width="21" height="21" rx="10.5" ry="10.5" fill="#ba272a"></rect><path fill="#fff" transform="translate(4 4)" d="M7.5,1.07A4.27,4.27,0,0,0,4.15,2.68a4.35,4.35,0,0,0-1,2.68C0,5.38,0,6.52,0,13.93H15c0-7.41,0-8.55-3.11-8.57a4.45,4.45,0,0,0-1-2.68A4.27,4.27,0,0,0,7.5,1.07Zm0,2.14A2.2,2.2,0,0,1,9.71,5.36H5.29A2.21,2.21,0,0,1,7.5,3.21ZM6.43,6.43H8.57V8.57h2.14v2.14H8.57v2.15H6.43V10.71H4.29V8.57H6.43Z"></path></svg>