<svg xmlns="http://www.w3.org/2000/svg" viewBox="0 0 23 23" height="23" width="23"><title>doityourself_15.svg</title><rect fill="none" x="0" y="0" width="23" height="23"></rect><rect x="1" y="1" rx="10.5" ry="10.5" width="21" height="21" stroke="#ffffff" style="stroke-linejoin:round;stroke-miterlimit:4;" fill="#ffffff" stroke-width="2"></rect><rect x="1" y="1" width="21" height="21" rx="10.5" ry="10.5" fill="#4f4f4f"></rect><path fill="#fff" transform="translate(4 4)" d="M9.64,0A3,3,0,0,0,8.3,2.48,2.94,2.94,0,0,0,9.91,5.09v8.3A1.44,1.44,0,0,0,11.25,15a1.43,1.43,0,0,0,1.34-1.61V5.09A2.94,2.94,0,0,0,14.2,2.48,3,3,0,0,0,12.86,0V1.61l-1.61,1.6L9.64,1.61ZM4.29,0C3.7,0,3.21.41,3.21.8H1.61L.27,2.68,1.61,4.55h1.6v9.11c0,.73.41,1.34,1.08,1.34s1.07-.57,1.07-1.34V4.55H7.5V.8H5.36C5.36.4,5,0,4.29,0Zm7,12.86a.54.54,0,1,1-.54.53A.54.54,0,0,1,11.25,12.86Z"></path></svg>