<svg xmlns="http://www.w3.org/2000/svg" viewBox="0 0 23 23" height="23" width="23"><title>drinking-water_15.svg</title><rect fill="none" x="0" y="0" width="23" height="23"></rect><rect x="1" y="1" rx="10.5" ry="10.5" width="21" height="21" stroke="#ffffff" style="stroke-linejoin:round;stroke-miterlimit:4;" fill="#ffffff" stroke-width="2"></rect><rect x="1" y="1" width="21" height="21" rx="10.5" ry="10.5" fill="#4f4f4f"></rect><path fill="#fff" transform="translate(4 4)" d="M1.07,6.43,2.68,15H8l1.6-8.57ZM2.34,7.5h6L8,9.64H2.73M4.29,5.36q0-3.23,3.21-3.22H8.57V1.07H7.5C6.43,1.07,6.43,0,7.5,0h3.21c1.08,0,1.08,1.07,0,1.07H9.64V2.14h4.29V3.75H7.5c-1.16,0-1.61.52-1.61,1.61Z"></path></svg>