<svg xmlns="http://www.w3.org/2000/svg" viewBox="0 0 23 23" height="23" width="23"><title>electronics_15.svg</title><rect fill="none" x="0" y="0" width="23" height="23"></rect><rect x="1" y="1" rx="10.5" ry="10.5" width="21" height="21" stroke="#ffffff" style="stroke-linejoin:round;stroke-miterlimit:4;" fill="#ffffff" stroke-width="2"></rect><rect x="1" y="1" width="21" height="21" rx="10.5" ry="10.5" fill="#4f9e28"></rect><path fill="#fff" transform="translate(4 4)" d="M10,0A.57.57,0,0,0,9.57.2L6.46,3.35l-2-2.08a.69.69,0,0,0-1-.06.7.7,0,0,0,.07,1l2,2.08H2.14A2.3,2.3,0,0,0,0,6.43v6.43A2.3,2.3,0,0,0,2.14,15H12.86A2.3,2.3,0,0,0,15,12.86V6.43a2.3,2.3,0,0,0-2.14-2.14H7.4l3.11-3.15C10.93.72,10.52.09,10,0ZM6.43,6.43c3.21,0,4.28,0,4.28,3.21s-1.07,3.22-4.28,3.22-4.29,0-4.29-3.22S3.21,6.43,6.43,6.43Zm6.43.13a.94.94,0,1,1-.94.94A.93.93,0,0,1,12.86,6.56Zm0,3.22a.94.94,0,0,1,0,1.87.94.94,0,1,1,0-1.87Z"></path></svg>