<svg xmlns="http://www.w3.org/2000/svg" viewBox="0 0 19 19" height="19" width="19"><title>ferry_15.svg</title><rect fill="none" x="0" y="0" width="19" height="19"></rect><rect x="0" y="0" width="19" height="19" rx="9.5" ry="9.5" fill="#3289fa"></rect><path fill="#fff" transform="translate(2 2)" d="M3.75,1.07,3.21,5.36,7.5,3.21l4.29,2.15-.54-4.29H9.64A1,1,0,0,0,8.57,0H6.43A1,1,0,0,0,5.36,1.07ZM7.5,4.29,1.07,7.5,3.21,9.64v1.07c.48,0,1.61,1.08,2.15,1.08S7,10.71,7.5,10.71s1.6,1.08,2.14,1.08,1.63-1.08,2.15-1.08V9.64L13.93,7.5Zm-4.29,8c-.57,0-1.59,1.07-2.14,1.07V15c.58,0,1.64-1.07,2.14-1.07S4.79,15,5.36,15,7,13.93,7.5,13.93,9.13,15,9.64,15s1.64-1.07,2.15-1.07S13.39,15,13.93,15V13.39c-.45,0-1.57-1.1-2.14-1.07s-1.58,1.07-2.15,1.07S8,12.32,7.5,12.32s-1.66,1.07-2.14,1.07S3.79,12.32,3.21,12.32Z"></path></svg>