<svg xmlns="http://www.w3.org/2000/svg" viewBox="0 0 23 23" height="23" width="23"><title>fire-station_15.svg</title><rect fill="none" x="0" y="0" width="23" height="23"></rect><rect x="1" y="1" rx="10.5" ry="10.5" width="21" height="21" stroke="#ffffff" style="stroke-linejoin:round;stroke-miterlimit:4;" fill="#ffffff" stroke-width="2"></rect><rect x="1" y="1" width="21" height="21" rx="10.5" ry="10.5" fill="#ffffff"></rect><path fill="#ffba1e" transform="translate(4 4)" d="M7.5,0C3.67,1.33,2.14,5.36,2.14,8.57A6.53,6.53,0,0,0,6.43,15C4.29,11.51,4.29,8.57,7.5,6.43a6.34,6.34,0,0,0,1.07,5.36A3.9,3.9,0,0,0,9.64,9.64c2.15,2.15.61,3.9,0,5.36a5.8,5.8,0,0,0,3.22-5.36c0-3.21-2.15-4.28-2.15-7.5A3.65,3.65,0,0,0,8.57,5.36C7.55,4.76,6.43,2.41,7.5,0Z"></path></svg>