<svg xmlns="http://www.w3.org/2000/svg" viewBox="0 0 23 23" height="23" width="23"><title>florist_15.svg</title><rect fill="none" x="0" y="0" width="23" height="23"></rect><rect x="1" y="1" rx="10.5" ry="10.5" width="21" height="21" stroke="#ffffff" style="stroke-linejoin:round;stroke-miterlimit:4;" fill="#ffffff" stroke-width="2"></rect><rect x="1" y="1" width="21" height="21" rx="10.5" ry="10.5" fill="#4f9e28"></rect><path fill="#fff" transform="translate(4 4)" d="M3.21,0c1,3-.82,6.89,3.49,7.43v6c0-1.57-2.42-4.82-5.63-4.82C4.29,10.71,2.14,15,6.43,15H8.57c4.29,0,2.14-4.29,5.36-6.43-3.21,0-5.63,3.16-5.63,4.82v-6C12.59,6.91,10.77,3,11.79,0,10.71,0,9.38,3.21,9.38,3.21A11.09,11.09,0,0,0,7.5,0,11,11,0,0,0,5.63,3.21S4.29,0,3.21,0Z"></path></svg>