<svg xmlns="http://www.w3.org/2000/svg" viewBox="0 0 23 23" height="23" width="23"><title>ford_15.svg</title><rect fill="none" x="0" y="0" width="23" height="23"></rect><rect x="1" y="1" rx="10.5" ry="10.5" width="21" height="21" stroke="#ffffff" style="stroke-linejoin:round;stroke-miterlimit:4;" fill="#ffffff" stroke-width="2"></rect><rect x="1" y="1" width="21" height="21" rx="10.5" ry="10.5" fill="#4f4f4f"></rect><path fill="#fff" transform="translate(4 4)" d="M4.82,1.07,1.07,4.29,4.82,7.5V5.36h5.36V7.5l3.75-3.21L10.18,1.07V3.21H4.82ZM3.21,8C2.64,8,1.62,9.11,1.07,9.11v1.6c.58,0,1.64-1.07,2.14-1.07s1.58,1.07,2.15,1.07S7,9.64,7.5,9.64s1.63,1.07,2.14,1.07,1.64-1.07,2.15-1.07,1.6,1.07,2.14,1.07V9.11C13.48,9.11,12.36,8,11.79,8S10.21,9.11,9.64,9.11,8,8,7.5,8,5.84,9.11,5.36,9.11,3.79,8,3.21,8Zm0,3.21c-.57,0-1.59,1.07-2.14,1.07v1.61c.58,0,1.64-1.07,2.14-1.07s1.58,1.07,2.15,1.07S7,12.86,7.5,12.86s1.63,1.07,2.14,1.07,1.64-1.07,2.15-1.07,1.6,1.07,2.14,1.07V12.32c-.45,0-1.57-1.1-2.14-1.07s-1.58,1.07-2.15,1.07S8,11.25,7.5,11.25s-1.66,1.07-2.14,1.07S3.79,11.25,3.21,11.25Z"></path></svg>