<svg xmlns="http://www.w3.org/2000/svg" viewBox="0 0 23 23" height="23" width="23"><title>fort_15.svg</title><rect fill="none" x="0" y="0" width="23" height="23"></rect><rect x="1" y="1" rx="10.5" ry="10.5" width="21" height="21" stroke="#ffffff" style="stroke-linejoin:round;stroke-miterlimit:4;" fill="#ffffff" stroke-width="2"></rect><rect x="1" y="1" width="21" height="21" rx="10.5" ry="10.5" fill="#4f4f4f"></rect><path fill="#fff" transform="translate(4 4)" d="M3,2.14,2.14,3.21v.37H5.36V3.21L4.49,2.14Zm7.56,0L9.64,3.21v.37h3.22V3.21l-.81-1.07ZM2.14,4.29V7.5H12.86V4.29H9.64V5.36H5.36V4.29ZM3.75,5.36a.52.52,0,0,1,.54.53v.54H3.21V5.89A.52.52,0,0,1,3.75,5.36Zm7.5,0a.52.52,0,0,1,.54.53v.54H10.71V5.89A.52.52,0,0,1,11.25,5.36ZM1.07,8.57,0,12.86H15L13.93,8.57Z"></path></svg>