<svg xmlns="http://www.w3.org/2000/svg" viewBox="0 0 23 23" height="23" width="23"><title>garden-centre_15.svg</title><rect fill="none" x="0" y="0" width="23" height="23"></rect><rect x="1" y="1" rx="10.5" ry="10.5" width="21" height="21" stroke="#ffffff" style="stroke-linejoin:round;stroke-miterlimit:4;" fill="#ffffff" stroke-width="2"></rect><rect x="1" y="1" width="21" height="21" rx="10.5" ry="10.5" fill="#4f4f4f"></rect><path fill="#fff" transform="translate(4 4)" d="M9.64,1.88c-2.36,0-4.28.26-4.28,3.48V7.5h6.43V6.7a1.29,1.29,0,0,0-1.34-1.34H6.7c0-2.15,1.35-2.15,2.94-2.15,2,0,3.22.72,3.22,2.68,0,.91,0,2.12-1.07,2.41H5.36v2.28a.84.84,0,0,1-.94-.94V7.5c0-1.48-.76-2.28-2-2.28L1.07,4.29V7.5l1.34-.94c.41,0,.67.37.67.94V9.64c0,1.7.81,2.28,2.28,2.28v.4c0,1.14.52,1.61,1.6,1.61h3.22c1.05,0,1.61-.42,1.61-1.61V9.91c2.2-.59,2.41-2.41,2.41-4C14.2,3,12.46,1.88,9.64,1.88ZM0,4.29,0,7.5H.54l0-3.21Z"></path></svg>