<svg xmlns="http://www.w3.org/2000/svg" viewBox="0 0 27 27" height="27" width="27"><title>gate_15.svg</title><rect fill="none" x="0" y="0" width="27" height="27"></rect><rect x="1" y="1" rx="12.5" ry="12.5" width="25" height="25" stroke="#ffffff" style="stroke-linejoin:round;stroke-miterlimit:4;" fill="#ffffff" stroke-width="2"></rect><rect x="1" y="1" width="25" height="25" rx="12.5" ry="12.5" fill="#8f8d8d"></rect><path fill="#ffffff" transform="translate(4 4)" d="M16.025,16.414v-5.8H12.371v5.8Zm-2.349-4.232H14.2a.261.261,0,1,1,0,.522h-.522a.261.261,0,1,1,0-.522ZM1.148,16.938h16.7v.522H1.148Zm5.481-.524v-5.8H2.975v5.8ZM4.8,12.182h.522a.261.261,0,0,1,0,.522H4.8a.261.261,0,1,1,0-.522ZM6.107,4.15a.261.261,0,0,1,.261-.261H6.89a.261.261,0,0,1,.261.261h4.7a.261.261,0,0,1,.261-.261h.522a.261.261,0,0,1,.261.261H14.72V1.8a.261.261,0,1,0-.522,0v.783H4.8V1.8a.261.261,0,1,0-.522,0h0V4.15Zm10.662.65a.261.261,0,0,0-.222-.123H2.453a.261.261,0,0,0-.261.259.269.269,0,0,0,.028.118L2.975,6.56v3.592H6.629V9.109A2.351,2.351,0,0,1,8.978,6.76h1.044a2.351,2.351,0,0,1,2.349,2.349v1.043h3.654V6.56l.755-1.511a.261.261,0,0,0-.011-.254ZM5.324,7.282H4.8a.261.261,0,0,1,0-.522h.522a.261.261,0,0,1,0,.522Zm8.352-.522H14.2a.261.261,0,0,1,0,.522h-.522a.261.261,0,1,1,0-.522h0Zm0,2.87h-.261a.261.261,0,1,1-.032-.521h.293a.261.261,0,1,1,.032.521Zm1.044,0h-.261a.261.261,0,1,1-.032-.521h.293a.261.261,0,1,1,.032.521Z"></path></svg>