<svg xmlns="http://www.w3.org/2000/svg" viewBox="0 0 23 23" height="23" width="23"><title>gate_11.svg</title><rect fill="none" x="0" y="0" width="23" height="23"></rect><rect x="1" y="1" rx="10.5" ry="10.5" width="21" height="21" stroke="#ffffff" style="stroke-linejoin:round;stroke-miterlimit:4;" fill="#ffffff" stroke-width="2"></rect><rect x="1" y="1" width="21" height="21" rx="10.5" ry="10.5" fill="#8f8d8d"></rect><path fill="#ffffff" transform="translate(4 4)" d="M12.46,12.342V8.114H9.8v4.228ZM10.747,9.256h.381a.19.19,0,0,1,0,.38h-.381a.19.19,0,0,1,0-.38ZM1.612,12.724H13.793v.381H1.612Zm4-.382V8.114H2.944v4.228ZM4.276,9.256h.381a.19.19,0,0,1,0,.38H4.276a.19.19,0,0,1,0-.38ZM5.228,3.4a.191.191,0,0,1,.19-.191H5.8a.191.191,0,0,1,.19.191H9.415a.191.191,0,0,1,.19-.191h.381a.191.191,0,0,1,.19.191h1.333V1.685a.191.191,0,0,0-.381-.028.131.131,0,0,0,0,.028v.571H4.276V1.685A.191.191,0,0,0,3.9,1.657a.131.131,0,0,0,0,.028V3.4ZM13,3.869a.192.192,0,0,0-.162-.091H2.563a.192.192,0,0,0-.19.192.189.189,0,0,0,.02.084l.551,1.1V7.775H5.608V7.014A1.716,1.716,0,0,1,7.321,5.3h.762A1.716,1.716,0,0,1,9.8,7.014v.761h2.66V5.156l.552-1.1A.189.189,0,0,0,13,3.869ZM4.657,5.682H4.276a.191.191,0,0,1,0-.381h.381a.191.191,0,0,1,0,.381Zm6.09-.381h.381a.191.191,0,0,1,0,.381h-.381a.191.191,0,0,1,0-.381Zm0,2.094h-.19a.191.191,0,0,1,0-.381h.19a.191.191,0,0,1,.028.381A.131.131,0,0,1,10.747,7.4Zm.762,0h-.191a.191.191,0,0,1,0-.381h.191a.191.191,0,0,1,0,.381Z"></path></svg>