<svg xmlns="http://www.w3.org/2000/svg" viewBox="0 0 23 23" height="23" width="23"><title>government_15.svg</title><rect fill="none" x="0" y="0" width="23" height="23"></rect><rect x="1" y="1" rx="10.5" ry="10.5" width="21" height="21" stroke="#ffffff" style="stroke-linejoin:round;stroke-miterlimit:4;" fill="#ffffff" stroke-width="2"></rect><rect x="1" y="1" width="21" height="21" rx="10.5" ry="10.5" fill="#4f4f4f"></rect><path fill="#fff" transform="translate(4 4)" d="M7.5,0A.52.52,0,0,0,7,.54V4.86C4.18,5,3.21,6.49,3.21,7.5h8.58c0-1-1-2.47-3.75-2.64V.54A.51.51,0,0,0,7.5,0ZM8.57,0V3.21h4.29l-2.15-1.6L12.86,0ZM1.07,8.57V9.64H2.14v4.29H1.07L0,15H15l-1.07-1.07H12.86V9.64h1.07V8.57ZM4.29,9.64H5.36v4.29H4.29Zm2.14,0H8.57v4.29H6.43Zm3.21,0h1.07v4.29H9.64Z"></path></svg>