<svg xmlns="http://www.w3.org/2000/svg" viewBox="0 0 23 23" height="23" width="23"><title>greengrocer_15.svg</title><rect fill="none" x="0" y="0" width="23" height="23"></rect><rect x="1" y="1" rx="10.5" ry="10.5" width="21" height="21" stroke="#ffffff" style="stroke-linejoin:round;stroke-miterlimit:4;" fill="#ffffff" stroke-width="2"></rect><rect x="1" y="1" width="21" height="21" rx="10.5" ry="10.5" fill="#d97200"></rect><path fill="#fff" transform="translate(4 4)" d="M8.23.41A4.84,4.84,0,0,0,7,2.68a16.38,16.38,0,0,0-.13,1.91A5.91,5.91,0,0,1,7.5,5a8,8,0,0,1,.7-.44c0-.42,0-1.3.1-1.6a3.17,3.17,0,0,1,.87-1.6ZM.54,1.07A3.72,3.72,0,0,0,5.89,3.21C4.93,1.07,3.21.39.54,1.07Zm1.6,4.56A4.49,4.49,0,0,0,1.07,8.57c0,2.14,2.14,5.89,4.29,5.89a5,5,0,0,0,2.14-.8,5,5,0,0,0,2.14.8c2.15,0,4.29-3.75,4.29-5.89a4.19,4.19,0,0,0-1.07-2.94c-1.1-1-3.22-1.08-5.36.53C5.36,4.64,3.21,4.44,2.14,5.63Z"></path></svg>