<svg xmlns="http://www.w3.org/2000/svg" viewBox="0 0 23 23" height="23" width="23"><title>health_post_11.svg</title><rect fill="none" x="0" y="0" width="23" height="23"></rect><rect x="1" y="1" rx="10.5" ry="10.5" width="21" height="21" stroke="#ffffff" style="stroke-linejoin:round;stroke-miterlimit:4;" fill="#ffffff" stroke-width="2"></rect><rect x="1" y="1" width="21" height="21" rx="10.5" ry="10.5" fill="#ba272a"></rect><path fill="#fff" transform="translate(4 4)" d="M7.686,5.611c0-.315,0-.63,0-.945a2.919,2.919,0,0,0-.031-.349.446.446,0,0,0-.341-.428A1.019,1.019,0,0,1,6.7,2.56,1.049,1.049,0,0,1,8,1.923a1.06,1.06,0,0,1,.688,1.3.382.382,0,0,0,.013.229,3.177,3.177,0,0,1,.243,1.217c0,.61,0,1.22,0,1.83A3.123,3.123,0,0,1,6.581,9.584c-.112.03-.137.078-.141.186a1.981,1.981,0,0,0,.482,1.467,1.888,1.888,0,0,0,2.062.512A1.856,1.856,0,0,0,10.2,10c0-.031,0-.062,0-.092a.6.6,0,0,0-.311-.665A1.45,1.45,0,0,1,9.369,7.5a1.526,1.526,0,0,1,2.926.248,1.506,1.506,0,0,1-.7,1.583.239.239,0,0,0-.131.243A4,4,0,0,1,11.294,11a3.137,3.137,0,0,1-6.087-.664,3.926,3.926,0,0,1-.02-.563c0-.122-.044-.161-.153-.192A3.063,3.063,0,0,1,2.821,7.449a3.3,3.3,0,0,1-.135-.885c-.019-.65-.01-1.3,0-1.951a3,3,0,0,1,.25-1.186.316.316,0,0,0,.01-.2,1.048,1.048,0,1,1,2.009-.6,1.035,1.035,0,0,1-.717,1.293.271.271,0,0,0-.228.239,3.1,3.1,0,0,0-.062.467c-.007.646-.006,1.291,0,1.937A1.873,1.873,0,0,0,5.572,8.408,1.852,1.852,0,0,0,7.636,7a2.294,2.294,0,0,0,.048-.454C7.691,6.231,7.686,5.921,7.686,5.611Z"></path></svg>