<svg xmlns="http://www.w3.org/2000/svg" viewBox="0 0 27 27" height="27" width="27"><title>health_post_15.svg</title><rect fill="none" x="0" y="0" width="27" height="27"></rect><rect x="1" y="1" rx="12.5" ry="12.5" width="25" height="25" stroke="#ffffff" style="stroke-linejoin:round;stroke-miterlimit:4;" fill="#ffffff" stroke-width="2"></rect><rect x="1" y="1" width="25" height="25" rx="12.5" ry="12.5" fill="#ba272a"></rect><path fill="#fff" transform="translate(4 4)" d="M9.744,7.019c0-.414,0-.828,0-1.242A3.918,3.918,0,0,0,9.7,5.32a.585.585,0,0,0-.448-.562,1.339,1.339,0,0,1-.8-1.747,1.379,1.379,0,0,1,2.614.877.5.5,0,0,0,.017.3,4.159,4.159,0,0,1,.319,1.6c0,.8,0,1.6,0,2.4a4.1,4.1,0,0,1-3.106,4.048c-.147.039-.18.1-.185.244a2.607,2.607,0,0,0,.632,1.927,2.481,2.481,0,0,0,2.709.672,2.44,2.44,0,0,0,1.6-2.3.958.958,0,0,1,0-.12.788.788,0,0,0-.409-.874A1.9,1.9,0,0,1,11.955,9.5a2,2,0,0,1,3.843.326,1.977,1.977,0,0,1-.921,2.079.311.311,0,0,0-.171.319,5.261,5.261,0,0,1-.223,1.877,4.12,4.12,0,0,1-7.995-.872,5.226,5.226,0,0,1-.026-.74c0-.16-.057-.212-.2-.252a4.023,4.023,0,0,1-2.907-2.8,4.331,4.331,0,0,1-.177-1.162c-.025-.854-.013-1.709,0-2.563A3.946,3.946,0,0,1,3.5,4.151a.413.413,0,0,0,.013-.26A1.377,1.377,0,1,1,6.153,3.1a1.36,1.36,0,0,1-.941,1.7.354.354,0,0,0-.3.314,4.023,4.023,0,0,0-.081.613Q4.818,7,4.828,8.273a2.458,2.458,0,0,0,2.14,2.419,2.431,2.431,0,0,0,2.71-1.856,2.822,2.822,0,0,0,.063-.6C9.751,7.834,9.744,7.426,9.744,7.019Z"></path></svg>