<svg xmlns="http://www.w3.org/2000/svg" viewBox="0 0 23 23" height="23" width="23"><title>hifi_15.svg</title><rect fill="none" x="0" y="0" width="23" height="23"></rect><rect x="1" y="1" rx="10.5" ry="10.5" width="21" height="21" stroke="#ffffff" style="stroke-linejoin:round;stroke-miterlimit:4;" fill="#ffffff" stroke-width="2"></rect><rect x="1" y="1" width="21" height="21" rx="10.5" ry="10.5" fill="#4f4f4f"></rect><path fill="#fff" transform="translate(4 4)" d="M2.14,0V15H12.86V0ZM7.5,1.07A2.15,2.15,0,1,1,5.36,3.21,2.14,2.14,0,0,1,7.5,1.07Zm0,1.61A.54.54,0,1,0,8,3.21.54.54,0,0,0,7.5,2.68Zm0,3.75a3.89,3.89,0,0,1,3.75,3.75A3.9,3.9,0,0,1,7.5,13.93a3.9,3.9,0,0,1-3.75-3.75A3.89,3.89,0,0,1,7.5,6.43Zm0,2.14a1.68,1.68,0,0,0-1.61,1.61A1.68,1.68,0,0,0,7.5,11.79a1.68,1.68,0,0,0,1.61-1.61A1.68,1.68,0,0,0,7.5,8.57Z"></path></svg>