<svg xmlns="http://www.w3.org/2000/svg" viewBox="0 0 27 27" height="27" width="27"><title>hindu_15.svg</title><rect fill="none" x="0" y="0" width="27" height="27"></rect><rect x="1" y="1" rx="12.5" ry="12.5" width="25" height="25" stroke="#ffffff" style="stroke-linejoin:round;stroke-miterlimit:4;" fill="#ffffff" stroke-width="2"></rect><rect x="1" y="1" width="25" height="25" rx="12.5" ry="12.5" fill="#f2aaa2"></rect><path fill="#ffffff" transform="translate(4 4)" d="M5.48,9.135c.015.08.027.148.042.216a5,5,0,0,0,.9,2.007c.055.073.108.126.207.091a.31.31,0,0,1,.062-.007,3.627,3.627,0,0,1,1.061.019,1.284,1.284,0,0,1,1.014.806,1.93,1.93,0,0,1,.149.625,1.646,1.646,0,0,1-.662,1.473,2.273,2.273,0,0,1-1.156.429,4.521,4.521,0,0,1-2.326-.328,2.286,2.286,0,0,1-1.07-.851c-.14-.214-.275-.431-.393-.657a9.406,9.406,0,0,1-.69-1.86c-.066-.237-.164-.465-.251-.7-.009-.024-.038-.041-.058-.062-.018.025-.048.047-.052.073a2.239,2.239,0,0,0-.042.313,8.152,8.152,0,0,0,.073,1.334,6.739,6.739,0,0,0,.759,2.395A5.013,5.013,0,0,0,5.26,16.638a3.293,3.293,0,0,0,1.033.33,5.413,5.413,0,0,0,1.34.01,2.306,2.306,0,0,0,.966-.319,3.96,3.96,0,0,0,.994-.885,2.937,2.937,0,0,0,.565-1.06,4.214,4.214,0,0,0,.15-.9,3.97,3.97,0,0,0-.158-1.51c-.1-.3-.238-.581-.36-.871l-.031-.074h.085c.416,0,.833-.005,1.249-.014a1.025,1.025,0,0,0,.672-.272,3.45,3.45,0,0,0,.568-.646c.211-.311.407-.632.609-.949a3.93,3.93,0,0,1,.69-.871,1.092,1.092,0,0,1,.735-.314,4.522,4.522,0,0,1,.579.057.632.632,0,0,1,.48.328,2.9,2.9,0,0,1,.226.486,3.988,3.988,0,0,1,.187,1.386,3.158,3.158,0,0,1-.17,1.034,2.878,2.878,0,0,1-1.156,1.435,2.4,2.4,0,0,1-1.576.431,1.544,1.544,0,0,1-.9-.36,2.346,2.346,0,0,1-.471-.561,1.338,1.338,0,0,1-.232-.694.483.483,0,0,0-.017-.093c-.014.008-.021.009-.024.014a.509.509,0,0,0-.032.054,1.674,1.674,0,0,0-.176.676,4.122,4.122,0,0,0,.091,1.1,3.222,3.222,0,0,0,.481,1.209,2.239,2.239,0,0,0,.9.791,2.437,2.437,0,0,0,.89.2,2.653,2.653,0,0,0,1.817-.52,3.3,3.3,0,0,0,1-1.3,6.126,6.126,0,0,0,.494-1.969,7.016,7.016,0,0,0-.035-1.707,5.274,5.274,0,0,0-.611-1.847,3.507,3.507,0,0,0-1.332-1.359,1.477,1.477,0,0,0-.555-.186,4.614,4.614,0,0,0-1.044,0,2.145,2.145,0,0,0-1.332.624,3.906,3.906,0,0,0-.6.789c-.2.348-.391.705-.586,1.058a3.537,3.537,0,0,1-.613.857,1.066,1.066,0,0,1-1.053.3,5.337,5.337,0,0,1-.916-.378l0-.01c.1-.062.2-.128.3-.188a1.647,1.647,0,0,0,.454-.41,4.425,4.425,0,0,0,.649-1.155A2.389,2.389,0,0,0,9.663,7.5a2.657,2.657,0,0,0-.747-1.833A1.91,1.91,0,0,0,7.9,5.082a3.794,3.794,0,0,0-1.155-.046,6.054,6.054,0,0,0-1.465.338,5.349,5.349,0,0,0-1.682,1L4.638,8.119l.069-.034c.268-.133.534-.272.806-.4A6.093,6.093,0,0,1,7,7.169a1.668,1.668,0,0,1,.779.014,1.31,1.31,0,0,1,.788.732.381.381,0,0,1,0,.349,1.519,1.519,0,0,1-.375.506,1.813,1.813,0,0,1-.919.409,4.426,4.426,0,0,1-1.238.006C5.849,9.167,5.671,9.153,5.48,9.135ZM8.577,3.1c-.019.028-.053.057-.059.09a.966.966,0,0,0-.02.239,3.488,3.488,0,0,0,.411,1.426A3.873,3.873,0,0,0,9.87,5.979a2.945,2.945,0,0,0,1.773.677,4.482,4.482,0,0,0,1.1-.084,6.14,6.14,0,0,0,.853-.21,5.508,5.508,0,0,0,1.484-.824,3.156,3.156,0,0,0,.3-.285.159.159,0,0,0,.03-.2c-.028-.052-.047-.108-.074-.161a3.264,3.264,0,0,0-.435-.6c-.163-.194-.324-.39-.481-.589-.034-.043-.061-.052-.1-.024-.113.074-.23.143-.337.225a7.688,7.688,0,0,1-.967.672,3.106,3.106,0,0,1-1.956.431,2.418,2.418,0,0,1-.9-.284A4.109,4.109,0,0,1,8.945,3.656C8.815,3.484,8.706,3.3,8.577,3.1ZM11.3,1.985a.2.2,0,0,1-.019.034q-.634.7-1.27,1.407a.064.064,0,0,0-.01.083,1.717,1.717,0,0,0,.4.52,8.667,8.667,0,0,0,.914.692.077.077,0,0,0,.065-.007,2.646,2.646,0,0,0,.555-.468,11.435,11.435,0,0,1,.835-.884l0-.015Z"></path><path fill="#ffffff" transform="translate(4 4)" d="M5.48,9.135c.191.018.369.032.548.05a4.426,4.426,0,0,0,1.238-.006,1.813,1.813,0,0,0,.919-.409,1.519,1.519,0,0,0,.375-.506.381.381,0,0,0,0-.349,1.31,1.31,0,0,0-.788-.732A1.668,1.668,0,0,0,7,7.169a6.093,6.093,0,0,0-1.484.517c-.272.127-.538.266-.806.4l-.069.034L3.6,6.378a5.349,5.349,0,0,1,1.682-1,6.054,6.054,0,0,1,1.465-.338A3.794,3.794,0,0,1,7.9,5.082a1.91,1.91,0,0,1,1.015.586A2.657,2.657,0,0,1,9.663,7.5a2.389,2.389,0,0,1-.188.893,4.425,4.425,0,0,1-.649,1.155,1.647,1.647,0,0,1-.454.41c-.1.06-.2.126-.3.188l0,.01a5.337,5.337,0,0,0,.916.378,1.066,1.066,0,0,0,1.053-.3,3.537,3.537,0,0,0,.613-.857c.2-.353.383-.71.586-1.058a3.906,3.906,0,0,1,.6-.789A2.145,2.145,0,0,1,13.18,6.91a4.614,4.614,0,0,1,1.044,0,1.477,1.477,0,0,1,.555.186,3.507,3.507,0,0,1,1.332,1.359,5.274,5.274,0,0,1,.611,1.847,7.016,7.016,0,0,1,.035,1.707,6.126,6.126,0,0,1-.494,1.969,3.3,3.3,0,0,1-1,1.3,2.653,2.653,0,0,1-1.817.52,2.437,2.437,0,0,1-.89-.2,2.239,2.239,0,0,1-.9-.791,3.222,3.222,0,0,1-.481-1.209,4.122,4.122,0,0,1-.091-1.1,1.674,1.674,0,0,1,.176-.676.509.509,0,0,1,.032-.054s.01-.006.024-.014a.483.483,0,0,1,.017.093,1.338,1.338,0,0,0,.232.694,2.346,2.346,0,0,0,.471.561,1.544,1.544,0,0,0,.9.36,2.4,2.4,0,0,0,1.576-.431,2.878,2.878,0,0,0,1.156-1.435,3.158,3.158,0,0,0,.17-1.034,3.988,3.988,0,0,0-.187-1.386,2.9,2.9,0,0,0-.226-.486.632.632,0,0,0-.48-.328,4.522,4.522,0,0,0-.579-.057,1.092,1.092,0,0,0-.735.314,3.93,3.93,0,0,0-.69.871c-.2.317-.4.638-.609.949a3.45,3.45,0,0,1-.568.646,1.025,1.025,0,0,1-.672.272c-.416.009-.833.01-1.249.014H9.759l.031.074c.122.29.262.573.36.871a3.97,3.97,0,0,1,.158,1.51,4.214,4.214,0,0,1-.15.9,2.937,2.937,0,0,1-.565,1.06,3.96,3.96,0,0,1-.994.885,2.306,2.306,0,0,1-.966.319,5.413,5.413,0,0,1-1.34-.01,3.293,3.293,0,0,1-1.033-.33,5.013,5.013,0,0,1-2.216-2.183,6.739,6.739,0,0,1-.759-2.395,8.152,8.152,0,0,1-.073-1.334,2.239,2.239,0,0,1,.042-.313c0-.026.034-.048.052-.073.02.021.049.038.058.062.087.231.185.459.251.7a9.406,9.406,0,0,0,.69,1.86c.118.226.253.443.393.657a2.286,2.286,0,0,0,1.07.851,4.521,4.521,0,0,0,2.326.328,2.273,2.273,0,0,0,1.156-.429,1.646,1.646,0,0,0,.662-1.473,1.93,1.93,0,0,0-.149-.625,1.284,1.284,0,0,0-1.014-.806,3.627,3.627,0,0,0-1.061-.019.31.31,0,0,0-.062.007c-.1.035-.152-.018-.207-.091a5,5,0,0,1-.9-2.007C5.507,9.283,5.5,9.215,5.48,9.135Z"></path><path fill="#ffffff" transform="translate(4 4)" d="M8.577,3.1c.129.2.238.386.368.558a4.109,4.109,0,0,0,1.219,1.066,2.418,2.418,0,0,0,.9.284,3.106,3.106,0,0,0,1.956-.431,7.688,7.688,0,0,0,.967-.672c.107-.082.224-.151.337-.225.042-.028.069-.019.1.024.157.2.318.4.481.589a3.264,3.264,0,0,1,.435.6c.027.053.046.109.074.161a.159.159,0,0,1-.03.2,3.156,3.156,0,0,1-.3.285,5.508,5.508,0,0,1-1.484.824,6.14,6.14,0,0,1-.853.21,4.482,4.482,0,0,1-1.1.084A2.945,2.945,0,0,1,9.87,5.979a3.873,3.873,0,0,1-.961-1.126A3.488,3.488,0,0,1,8.5,3.427a.966.966,0,0,1,.02-.239C8.524,3.155,8.558,3.126,8.577,3.1Z"></path><path fill="#ffffff" transform="translate(4 4)" d="M11.3,1.985l1.472,1.362,0,.015a11.435,11.435,0,0,0-.835.884,2.646,2.646,0,0,1-.555.468.077.077,0,0,1-.065.007,8.667,8.667,0,0,1-.914-.692,1.717,1.717,0,0,1-.4-.52.064.064,0,0,1,.01-.083q.636-.7,1.27-1.407A.2.2,0,0,0,11.3,1.985Z"></path></svg>