<svg xmlns="http://www.w3.org/2000/svg" viewBox="0 0 23 23" height="23" width="23"><title>hindu_11.svg</title><rect fill="none" x="0" y="0" width="23" height="23"></rect><rect x="1" y="1" rx="10.5" ry="10.5" width="21" height="21" stroke="#ffffff" style="stroke-linejoin:round;stroke-miterlimit:4;" fill="#ffffff" stroke-width="2"></rect><rect x="1" y="1" width="21" height="21" rx="10.5" ry="10.5" fill="#f2aaa2"></rect><path fill="#ffffff" transform="translate(4 4)" d="M4.393,7.045c.011.059.02.11.031.16A3.708,3.708,0,0,0,5.091,8.7c.041.054.08.094.153.068a.242.242,0,0,1,.047-.006,2.7,2.7,0,0,1,.788.015.954.954,0,0,1,.754.6,1.464,1.464,0,0,1,.111.465,1.224,1.224,0,0,1-.492,1.094,1.685,1.685,0,0,1-.859.319,3.357,3.357,0,0,1-1.729-.243,1.7,1.7,0,0,1-.795-.633c-.1-.158-.2-.32-.292-.488A6.944,6.944,0,0,1,2.264,8.5c-.049-.176-.122-.345-.186-.516-.007-.019-.029-.031-.043-.046C2.021,7.959,2,7.975,2,8a1.835,1.835,0,0,0-.031.233,6.082,6.082,0,0,0,.055.991A5,5,0,0,0,2.583,11,3.719,3.719,0,0,0,4.23,12.621,2.457,2.457,0,0,0,5,12.866a4,4,0,0,0,1,.008,1.733,1.733,0,0,0,.718-.237,2.976,2.976,0,0,0,.739-.658,2.2,2.2,0,0,0,.42-.788,3.15,3.15,0,0,0,.111-.668A2.955,2.955,0,0,0,7.864,9.4c-.073-.221-.177-.432-.268-.647L7.573,8.7h.063c.31,0,.619,0,.928-.011a.756.756,0,0,0,.5-.2,2.567,2.567,0,0,0,.422-.48c.157-.231.3-.469.452-.7a2.947,2.947,0,0,1,.514-.647A.813.813,0,0,1,11,6.42a3.3,3.3,0,0,1,.43.043.47.47,0,0,1,.357.243,2.2,2.2,0,0,1,.168.362,2.99,2.99,0,0,1,.139,1.03,2.33,2.33,0,0,1-.127.768,2.14,2.14,0,0,1-.859,1.067,1.79,1.79,0,0,1-1.171.32,1.15,1.15,0,0,1-.666-.267,1.753,1.753,0,0,1-.35-.418.987.987,0,0,1-.172-.515.377.377,0,0,0-.013-.069l-.018.01a.338.338,0,0,0-.024.041,1.229,1.229,0,0,0-.13.5,3.091,3.091,0,0,0,.067.82,2.406,2.406,0,0,0,.357.9,1.661,1.661,0,0,0,.667.588,1.821,1.821,0,0,0,.662.151,1.969,1.969,0,0,0,1.35-.387,2.447,2.447,0,0,0,.741-.964,4.524,4.524,0,0,0,.367-1.463,5.182,5.182,0,0,0-.025-1.269,3.928,3.928,0,0,0-.454-1.373,2.608,2.608,0,0,0-.99-1.009,1.106,1.106,0,0,0-.412-.139,3.472,3.472,0,0,0-.776,0,1.592,1.592,0,0,0-.99.464,2.891,2.891,0,0,0-.448.586c-.151.259-.291.524-.436.786a2.612,2.612,0,0,1-.455.638.791.791,0,0,1-.782.22A3.931,3.931,0,0,1,6.323,7.8l0-.007c.073-.046.146-.095.221-.14a1.209,1.209,0,0,0,.337-.3,3.305,3.305,0,0,0,.483-.859A1.763,1.763,0,0,0,7.5,5.83a1.978,1.978,0,0,0-.555-1.362,1.415,1.415,0,0,0-.755-.435A2.84,2.84,0,0,0,5.334,4a4.516,4.516,0,0,0-1.088.252A3.964,3.964,0,0,0,3,5L3.767,6.29l.052-.026c.2-.1.4-.2.6-.3a4.547,4.547,0,0,1,1.1-.384,1.228,1.228,0,0,1,.578.01.975.975,0,0,1,.586.544.284.284,0,0,1,0,.26,1.13,1.13,0,0,1-.278.375,1.347,1.347,0,0,1-.684.3,3.259,3.259,0,0,1-.92,0Zm2.3-4.486c-.014.02-.039.042-.043.066a.714.714,0,0,0-.015.178,2.6,2.6,0,0,0,.3,1.059,2.873,2.873,0,0,0,.715.838,2.189,2.189,0,0,0,1.317.5,3.364,3.364,0,0,0,.82-.063,4.548,4.548,0,0,0,.634-.156,4.088,4.088,0,0,0,1.1-.613,2.25,2.25,0,0,0,.226-.211.119.119,0,0,0,.023-.151c-.021-.039-.035-.081-.055-.12a2.423,2.423,0,0,0-.323-.444q-.183-.216-.358-.438c-.025-.032-.046-.038-.077-.018-.084.055-.171.106-.25.168a5.834,5.834,0,0,1-.719.5,2.307,2.307,0,0,1-1.453.32,1.776,1.776,0,0,1-.67-.211,3.041,3.041,0,0,1-.906-.792C6.871,2.845,6.79,2.705,6.694,2.559Zm2.028-.828a.2.2,0,0,1-.015.025Q8.236,2.28,7.763,2.8a.048.048,0,0,0-.007.062,1.268,1.268,0,0,0,.3.386,6.27,6.27,0,0,0,.679.514c.01.008.035,0,.048,0a2.023,2.023,0,0,0,.413-.348,8.553,8.553,0,0,1,.62-.657l0-.012Z"></path><path fill="#ffffff" transform="translate(4 4)" d="M4.393,7.045l.407.037a3.259,3.259,0,0,0,.92,0,1.347,1.347,0,0,0,.684-.3A1.13,1.13,0,0,0,6.682,6.4a.284.284,0,0,0,0-.26A.975.975,0,0,0,6.1,5.594a1.228,1.228,0,0,0-.578-.01,4.547,4.547,0,0,0-1.1.384c-.2.094-.4.2-.6.3l-.052.026L3,5A3.964,3.964,0,0,1,4.246,4.25,4.516,4.516,0,0,1,5.334,4a2.84,2.84,0,0,1,.858.035,1.415,1.415,0,0,1,.755.435A1.978,1.978,0,0,1,7.5,5.83a1.763,1.763,0,0,1-.14.664,3.305,3.305,0,0,1-.483.859,1.209,1.209,0,0,1-.337.3c-.075.045-.148.094-.221.14l0,.007a3.931,3.931,0,0,0,.682.281.791.791,0,0,0,.782-.22,2.612,2.612,0,0,0,.455-.638c.145-.262.285-.527.436-.786a2.891,2.891,0,0,1,.448-.586,1.592,1.592,0,0,1,.99-.464,3.472,3.472,0,0,1,.776,0,1.106,1.106,0,0,1,.412.139,2.608,2.608,0,0,1,.99,1.009,3.928,3.928,0,0,1,.454,1.373,5.182,5.182,0,0,1,.025,1.269,4.524,4.524,0,0,1-.367,1.463,2.447,2.447,0,0,1-.741.964,1.969,1.969,0,0,1-1.35.387,1.821,1.821,0,0,1-.662-.151,1.661,1.661,0,0,1-.667-.588,2.406,2.406,0,0,1-.357-.9,3.091,3.091,0,0,1-.067-.82,1.229,1.229,0,0,1,.13-.5.338.338,0,0,1,.024-.041l.018-.01a.377.377,0,0,1,.013.069.987.987,0,0,0,.172.515,1.753,1.753,0,0,0,.35.418,1.15,1.15,0,0,0,.666.267,1.79,1.79,0,0,0,1.171-.32,2.14,2.14,0,0,0,.859-1.067,2.33,2.33,0,0,0,.127-.768,2.99,2.99,0,0,0-.139-1.03,2.2,2.2,0,0,0-.168-.362.47.47,0,0,0-.357-.243A3.3,3.3,0,0,0,11,6.42a.813.813,0,0,0-.546.234,2.947,2.947,0,0,0-.514.647c-.15.236-.295.474-.452.705a2.567,2.567,0,0,1-.422.48.756.756,0,0,1-.5.2c-.309.007-.618.008-.928.011H7.573l.023.055c.091.215.2.426.268.647a2.955,2.955,0,0,1,.117,1.122,3.15,3.15,0,0,1-.111.668,2.2,2.2,0,0,1-.42.788,2.976,2.976,0,0,1-.739.658,1.733,1.733,0,0,1-.718.237,4,4,0,0,1-1-.008,2.457,2.457,0,0,1-.767-.245A3.719,3.719,0,0,1,2.583,11a5,5,0,0,1-.564-1.779,6.082,6.082,0,0,1-.055-.991A1.835,1.835,0,0,1,2,8c0-.02.026-.036.04-.054.014.015.036.027.043.046.064.171.137.34.186.516a6.944,6.944,0,0,0,.513,1.383c.088.168.188.33.292.488a1.7,1.7,0,0,0,.8.633,3.357,3.357,0,0,0,1.729.243,1.685,1.685,0,0,0,.859-.319,1.224,1.224,0,0,0,.492-1.094,1.464,1.464,0,0,0-.111-.465.954.954,0,0,0-.754-.6,2.7,2.7,0,0,0-.788-.015.242.242,0,0,0-.047.006c-.073.026-.112-.014-.153-.068a3.708,3.708,0,0,1-.667-1.492C4.413,7.155,4.4,7.1,4.393,7.045Z"></path><path fill="#ffffff" transform="translate(4 4)" d="M6.694,2.559c.1.146.177.286.274.414a3.041,3.041,0,0,0,.906.792,1.776,1.776,0,0,0,.67.211A2.307,2.307,0,0,0,10,3.656a5.834,5.834,0,0,0,.719-.5c.079-.062.166-.113.25-.168.031-.02.052-.014.077.018q.176.222.358.438a2.423,2.423,0,0,1,.323.444c.02.039.034.081.055.12a.119.119,0,0,1-.023.151,2.25,2.25,0,0,1-.226.211,4.088,4.088,0,0,1-1.1.613,4.548,4.548,0,0,1-.634.156,3.364,3.364,0,0,1-.82.063,2.189,2.189,0,0,1-1.317-.5,2.873,2.873,0,0,1-.715-.838,2.6,2.6,0,0,1-.3-1.059.714.714,0,0,1,.015-.178C6.655,2.6,6.68,2.579,6.694,2.559Z"></path><path fill="#ffffff" transform="translate(4 4)" d="M8.722,1.731,9.815,2.743l0,.012a8.553,8.553,0,0,0-.62.657,2.023,2.023,0,0,1-.413.348c-.013.007-.038.012-.048,0a6.27,6.27,0,0,1-.679-.514,1.268,1.268,0,0,1-.3-.386A.048.048,0,0,1,7.763,2.8q.472-.522.944-1.046A.2.2,0,0,0,8.722,1.731Z"></path></svg>