<svg xmlns="http://www.w3.org/2000/svg" viewBox="0 0 23 23" height="23" width="23"><title>hospital_15.svg</title><rect fill="none" x="0" y="0" width="23" height="23"></rect><rect x="1" y="1" rx="10.5" ry="10.5" width="21" height="21" stroke="#ffffff" style="stroke-linejoin:round;stroke-miterlimit:4;" fill="#ffffff" stroke-width="2"></rect><rect x="1" y="1" width="21" height="21" rx="10.5" ry="10.5" fill="#ba272a"></rect><path fill="#fff" transform="translate(4 4)" d="M7.5,0A7.5,7.5,0,1,0,15,7.5,7.5,7.5,0,0,0,7.5,0Zm0,1.13A6.43,6.43,0,0,1,14,7.5,6.43,6.43,0,0,1,7.5,13.87,6.43,6.43,0,0,1,1,7.5,6.43,6.43,0,0,1,7.5,1.13Zm-2.15,1v3.2H2.12V9.63H5.35v3.2h4.3V9.63h3.23V5.37H9.65V2.17Z"></path></svg>