<svg xmlns="http://www.w3.org/2000/svg" viewBox="0 0 23 23" height="23" width="23"><title>hostel_15.svg</title><rect fill="none" x="0" y="0" width="23" height="23"></rect><rect x="1" y="1" rx="10.5" ry="10.5" width="21" height="21" stroke="#ffffff" style="stroke-linejoin:round;stroke-miterlimit:4;" fill="#ffffff" stroke-width="2"></rect><rect x="1" y="1" width="21" height="21" rx="10.5" ry="10.5" fill="#4f4f4f"></rect><path fill="#fff" transform="translate(4 4)" d="M.67,0C.27,0,0,.27,0,.8V15H1.34V12.86H13.66V15H15S15,.8,15,.8c0-.53-.27-.8-.67-.8s-.67.27-.67.8V5.36H1.34V.8C1.34.27,1.07,0,.67,0ZM3.75,1.07A1.61,1.61,0,1,0,5.36,2.68,1.61,1.61,0,0,0,3.75,1.07ZM5.89,2.14V4.29h7a2.34,2.34,0,0,0-2.15-2.15ZM1.34,6.43H13.66v5.36H1.34S1.34,6.43,1.34,6.43ZM3.75,7.5A1.61,1.61,0,1,0,5.36,9.11,1.61,1.61,0,0,0,3.75,7.5ZM5.89,8.57v2.14l7,0a2.34,2.34,0,0,0-2.15-2.16Z"></path></svg>