<svg xmlns="http://www.w3.org/2000/svg" viewBox="0 0 23 23" height="23" width="23"><title>hotel_15.svg</title><rect fill="none" x="0" y="0" width="23" height="23"></rect><rect x="1" y="1" rx="10.5" ry="10.5" width="21" height="21" stroke="#ffffff" style="stroke-linejoin:round;stroke-miterlimit:4;" fill="#ffffff" stroke-width="2"></rect><rect x="1" y="1" width="21" height="21" rx="10.5" ry="10.5" fill="#4f4f4f"></rect><path fill="#fff" transform="translate(4 4)" d="M.67,3.21C.27,3.21,0,3.48,0,4v7.77H1.34V9.91s11.12,0,12.32,0v1.88H15V5.09c0-.36-.15-.8-.67-.8s-.67.44-.67.8V8.57H1.34V4C1.34,3.48,1.07,3.21.67,3.21ZM3.75,4.29a1.61,1.61,0,1,0,1.61,1.6A1.6,1.6,0,0,0,3.75,4.29ZM5.89,5.36V7.5h7a2.34,2.34,0,0,0-2.15-2.14Z"></path></svg>