<svg xmlns="http://www.w3.org/2000/svg" viewBox="0 0 23 23" height="23" width="23"><title>ice-cream_15.svg</title><rect fill="none" x="0" y="0" width="23" height="23"></rect><rect x="1" y="1" rx="10.5" ry="10.5" width="21" height="21" stroke="#ffffff" style="stroke-linejoin:round;stroke-miterlimit:4;" fill="#ffffff" stroke-width="2"></rect><rect x="1" y="1" width="21" height="21" rx="10.5" ry="10.5" fill="#4f4f4f"></rect><path fill="#fff" transform="translate(4 4)" d="M5.36,0A3.22,3.22,0,0,0,2.14,3.21a3.23,3.23,0,0,0,.2,1.08h6a3.23,3.23,0,0,0,.2-1.08A3.21,3.21,0,0,0,5.36,0ZM9.64,0a3,3,0,0,0-1.2.27,4.21,4.21,0,0,1,1.2,2.94,4.27,4.27,0,0,1-.16,1.08h3.18a3.23,3.23,0,0,0,.2-1.08A3.22,3.22,0,0,0,9.64,0ZM3.48,5.36,7.5,15l4-9.64Z"></path></svg>