<svg xmlns="http://www.w3.org/2000/svg" viewBox="0 0 23 23" height="23" width="23"><title>jewellery_15.svg</title><rect fill="none" x="0" y="0" width="23" height="23"></rect><rect x="1" y="1" rx="10.5" ry="10.5" width="21" height="21" stroke="#ffffff" style="stroke-linejoin:round;stroke-miterlimit:4;" fill="#ffffff" stroke-width="2"></rect><rect x="1" y="1" width="21" height="21" rx="10.5" ry="10.5" fill="#4f4f4f"></rect><path fill="#fff" transform="translate(4 4)" d="M5.89,0,4.29,2.11h6.42L9.11,0ZM4.29,3.18,7.5,6.13l3.21-2.95ZM4.15,5.46a5.45,5.45,0,0,0-2,4.15A5.46,5.46,0,0,0,7.46,15a5.46,5.46,0,0,0,5.33-5.39,5.4,5.4,0,0,0-2-4.12L9.61,6.6a3.92,3.92,0,0,1,1.68,3,4,4,0,0,1-3.83,3.71A4,4,0,0,1,3.68,9.61a3.92,3.92,0,0,1,1.71-3Z"></path></svg>