<svg xmlns="http://www.w3.org/2000/svg" viewBox="0 0 23 23" height="23" width="23"><title>jewish_15.svg</title><rect fill="none" x="0" y="0" width="23" height="23"></rect><rect x="1" y="1" rx="10.5" ry="10.5" width="21" height="21" stroke="#ffffff" style="stroke-linejoin:round;stroke-miterlimit:4;" fill="#ffffff" stroke-width="2"></rect><rect x="1" y="1" width="21" height="21" rx="10.5" ry="10.5" fill="#4f4f4f"></rect><path fill="#fff" transform="translate(4 4)" d="M7.54,0,5.36,3.71H1.07L3.21,7.46,1.07,11.21H5.36L7.54,15l2.14-3.79h4.25L11.82,7.46l2.11-3.75H9.68Zm0,2.61.63,1.1H6.9ZM3.35,5h1.3L4,6.09ZM6.2,5H8.87l1.41,2.5L8.87,10H6.2L4.79,7.46Zm4.18,0h1.34l-.67,1.17Zm.67,3.84L11.72,10H10.38ZM4,8.84,4.65,10H3.35ZM6.9,11.21H8.17l-.63,1.11Z"></path></svg>