<svg xmlns="http://www.w3.org/2000/svg" viewBox="0 0 23 23" height="23" width="23"><title>kiosk_15.svg</title><rect fill="none" x="0" y="0" width="23" height="23"></rect><rect x="1" y="1" rx="10.5" ry="10.5" width="21" height="21" stroke="#ffffff" style="stroke-linejoin:round;stroke-miterlimit:4;" fill="#ffffff" stroke-width="2"></rect><rect x="1" y="1" width="21" height="21" rx="10.5" ry="10.5" fill="#4f4f4f"></rect><path fill="#fff" transform="translate(4 4)" d="M2.14,0,0,3.21C0,4.33.25,5.36,1.88,5.36S3.75,4.29,3.75,3.21L5.09,0ZM6.43,0l-.8,3.21c0,1.09.17,2.15,1.87,2.15s1.87-1.1,1.88-2.15L8.57,0ZM9.91,0l1.34,3.21c0,1.1.35,2.15,1.88,2.15S15,4.27,15,3.21L12.86,0ZM1.07,6.43V15H13.93V6.43ZM4.29,8.57h6.42a1.11,1.11,0,0,1,1.08,1.07v2.15H3.21V9.64A1.12,1.12,0,0,1,4.29,8.57Z"></path></svg>