<svg xmlns="http://www.w3.org/2000/svg" viewBox="0 0 23 23" height="23" width="23"><title>lift-gate_15.svg</title><rect fill="none" x="0" y="0" width="23" height="23"></rect><rect x="1" y="1" rx="10.5" ry="10.5" width="21" height="21" stroke="#ffffff" style="stroke-linejoin:round;stroke-miterlimit:4;" fill="#ffffff" stroke-width="2"></rect><rect x="1" y="1" width="21" height="21" rx="10.5" ry="10.5" fill="#4f4f4f"></rect><path fill="#fff" transform="translate(4 4)" d="M.9,2.14A1,1,0,0,0,0,3.21v9.65H2.14V9.31a2.11,2.11,0,0,1-.9-1,2.24,2.24,0,0,1,.9-2.68V3.21A1,1,0,0,0,1.07,2.14.78.78,0,0,0,.9,2.14Zm12.86,0a1,1,0,0,0-.9,1.07v9.65H15V3.21a1,1,0,0,0-1.07-1.07A.78.78,0,0,0,13.76,2.14ZM10.58,3.21a1.21,1.21,0,0,0-.3.11L2.78,6.53A1.11,1.11,0,0,0,2.14,8a1.09,1.09,0,0,0,1.51.47l7.5-3.21A1.13,1.13,0,0,0,11.75,4,1.11,1.11,0,0,0,10.58,3.21Z"></path></svg>