<svg xmlns="http://www.w3.org/2000/svg" viewBox="0 0 23 23" height="23" width="23"><title>luggage_15.svg</title><rect fill="none" x="0" y="0" width="23" height="23"></rect><rect x="1" y="1" rx="10.5" ry="10.5" width="21" height="21" stroke="#ffffff" style="stroke-linejoin:round;stroke-miterlimit:4;" fill="#ffffff" stroke-width="2"></rect><rect x="1" y="1" width="21" height="21" rx="10.5" ry="10.5" fill="#8f8d8d"></rect><path fill="#ffffff" transform="translate(4 4)" d="M6.43,1.07A2.32,2.32,0,0,0,4.29,3.21V4.29H3.48v9.64h8V4.29h-.81V3.21A2.31,2.31,0,0,0,8.57,1.07ZM7,2.41H8A1.26,1.26,0,0,1,9.38,3.75v.54H5.63V3.75A1.21,1.21,0,0,1,7,2.41ZM2.14,4.29A1.87,1.87,0,0,0,0,6.43v5.36a1.92,1.92,0,0,0,2.14,2.14Zm10.72,0v9.64A2,2,0,0,0,15,11.79V6.43A1.88,1.88,0,0,0,12.86,4.29Z"></path></svg>