<svg xmlns="http://www.w3.org/2000/svg" viewBox="0 0 23 23" height="23" width="23"><title>mast-communications_15.svg</title><rect fill="none" x="0" y="0" width="23" height="23"></rect><rect x="1" y="1" rx="10.5" ry="10.5" width="21" height="21" stroke="#ffffff" style="stroke-linejoin:round;stroke-miterlimit:4;" fill="#ffffff" stroke-width="2"></rect><rect x="1" y="1" width="21" height="21" rx="10.5" ry="10.5" fill="#8f8d8d"></rect><path fill="#ffffff" transform="translate(4 4)" d="M4.29.43A5.42,5.42,0,0,0,1,5.36a5.4,5.4,0,0,0,3.25,4.92V9a4.22,4.22,0,0,1,0-7.36Zm6.42,0V1.68a4.22,4.22,0,0,1,0,7.36v1.24A5.4,5.4,0,0,0,14,5.36,5.42,5.42,0,0,0,10.71.43ZM5.36,2.34a3.19,3.19,0,0,0,0,6V7.2a2.12,2.12,0,0,1,0-3.68Zm4.28,0V3.52a2.12,2.12,0,0,1,0,3.68V8.37a3.19,3.19,0,0,0,0-6Zm-2.31,2a1,1,0,0,0-.9,1.07v8.57H3.21V15h8.58V13.93H8.57V5.36A1,1,0,0,0,7.5,4.29.39.39,0,0,0,7.33,4.29Z"></path></svg>