<svg xmlns="http://www.w3.org/2000/svg" viewBox="0 0 23 23" height="23" width="23"><title>memorial_15.svg</title><rect fill="none" x="0" y="0" width="23" height="23"></rect><rect x="1" y="1" rx="10.5" ry="10.5" width="21" height="21" stroke="#ffffff" style="stroke-linejoin:round;stroke-miterlimit:4;" fill="#ffffff" stroke-width="2"></rect><rect x="1" y="1" width="21" height="21" rx="10.5" ry="10.5" fill="#8f8d8d"></rect><path fill="#ffffff" transform="translate(4 4)" d="M2.68,2.14A1.64,1.64,0,0,0,1.07,3.75v7.5a1.66,1.66,0,0,0,1.61,1.61h9.64a1.69,1.69,0,0,0,1.61-1.61V3.75a1.71,1.71,0,0,0-1.61-1.61Zm0,1.07a.54.54,0,1,1-.54.54A.54.54,0,0,1,2.68,3.21Zm9.64,0a.54.54,0,1,1-.53.54A.54.54,0,0,1,12.32,3.21Zm-7,1.08H6.43V5.36H5.36Zm2.14,0H9.64V5.36H7.5ZM3.21,6.43h8.58V7.5H3.21ZM5.36,8.57H9.64V9.64H5.36ZM2.68,10.71a.54.54,0,1,1-.54.54A.54.54,0,0,1,2.68,10.71Zm9.64,0a.54.54,0,1,1-.53.54A.54.54,0,0,1,12.32,10.71Z"></path></svg>