<svg xmlns="http://www.w3.org/2000/svg" viewBox="0 0 23 23" height="23" width="23"><title>memorial_11.svg</title><rect fill="none" x="0" y="0" width="23" height="23"></rect><rect x="1" y="1" rx="10.5" ry="10.5" width="21" height="21" stroke="#ffffff" style="stroke-linejoin:round;stroke-miterlimit:4;" fill="#ffffff" stroke-width="2"></rect><rect x="1" y="1" width="21" height="21" rx="10.5" ry="10.5" fill="#8f8d8d"></rect><path fill="#ffffff" transform="translate(4 4)" d="M1.5,1.5A1.57,1.57,0,0,0,0,3v9a1.73,1.73,0,0,0,1.5,1.5h12A1.6,1.6,0,0,0,15,12V3a1.58,1.58,0,0,0-1.5-1.5ZM4.5,9h6v1.5h-6ZM6,3H9V4.5H6ZM3,6h9V7.5H3Z"></path></svg>