<svg xmlns="http://www.w3.org/2000/svg" viewBox="0 0 23 23" height="23" width="23"><title>metro_15.svg</title><rect fill="none" x="0" y="0" width="23" height="23"></rect><rect x="1" y="1" rx="10.5" ry="10.5" width="21" height="21" stroke="#ffffff" style="stroke-linejoin:round;stroke-miterlimit:4;" fill="#ffffff" stroke-width="2"></rect><rect x="1" y="1" width="21" height="21" rx="10.5" ry="10.5" fill="#8f8d8d"></rect><path fill="#ffffff" transform="translate(4 4)" d="M7.5,0C0,0,0,6.43,0,7.5v5.36H3.21L2.14,15H5.36l1.07-2.14H8.57L9.64,15h3.22l-1.07-2.14H15V7.5C15,6.43,15,0,7.5,0ZM4.29,2.14h6.42l2.15,2.15V9.64a1,1,0,0,1-1.07,1.07H3.21A1.06,1.06,0,0,1,2.14,9.64V4.29ZM5.36,3.21A2.32,2.32,0,0,0,3.21,5.36V7.5h8.58V5.36A2.32,2.32,0,0,0,9.64,3.21ZM4,8.3a.81.81,0,1,0,.8.81A.81.81,0,0,0,4,8.3Zm7,0a.81.81,0,1,0,.81.81A.8.8,0,0,0,11,8.3Z"></path></svg>