<svg xmlns="http://www.w3.org/2000/svg" viewBox="0 0 23 23" height="23" width="23"><title>muslim_15.svg</title><rect fill="none" x="0" y="0" width="23" height="23"></rect><rect x="1" y="1" rx="10.5" ry="10.5" width="21" height="21" stroke="#ffffff" style="stroke-linejoin:round;stroke-miterlimit:4;" fill="#ffffff" stroke-width="2"></rect><rect x="1" y="1" width="21" height="21" rx="10.5" ry="10.5" fill="#f2aaa2"></rect><path fill="#ffffff" transform="translate(4 4)" d="M6.43,1.07A6.33,6.33,0,0,0,0,7.5a6.33,6.33,0,0,0,6.43,6.43,7.07,7.07,0,0,0,5.36-2.14,7,7,0,0,1-3.22,1.07A5.61,5.61,0,0,1,3.21,7.5,5.61,5.61,0,0,1,8.57,2.14a7,7,0,0,1,3.22,1.07A7.07,7.07,0,0,0,6.43,1.07Zm4.82,3.22L10.18,6.43H7.5L9.64,8,8.57,10.71l2.68-1.6,2.68,1.6L12.86,8,15,6.43H12.32Z"></path></svg>