<svg xmlns="http://www.w3.org/2000/svg" viewBox="0 0 23 23" height="23" width="23"><title>news_15.svg</title><rect fill="none" x="0" y="0" width="23" height="23"></rect><rect x="1" y="1" rx="10.5" ry="10.5" width="21" height="21" stroke="#ffffff" style="stroke-linejoin:round;stroke-miterlimit:4;" fill="#ffffff" stroke-width="2"></rect><rect x="1" y="1" width="21" height="21" rx="10.5" ry="10.5" fill="#4f4f4f"></rect><path fill="#fff" transform="translate(4 4)" d="M1.07,1.07V15H13.93V1.07ZM2.14,2.14H12.86V13.93H2.14ZM3.21,3.21V5.36h8.58V3.21Zm0,3.22V7H6.43V6.43Zm5.36,4.28v.54h3.22v-.54ZM3.21,7.5V8H6.43V7.5Zm5.36,4.29v.53h3.22v-.53ZM3.21,8.57v.54H6.43V8.57Zm0,1.07v.54H6.43V9.64ZM8.57,6.43V9.64h3.22V6.43ZM3.21,10.71v.54H6.43v-.54Zm0,1.08v.53H6.43v-.53Z"></path></svg>