<svg xmlns="http://www.w3.org/2000/svg" viewBox="0 0 23 23" height="23" width="23"><title>nightclub_15.svg</title><rect fill="none" x="0" y="0" width="23" height="23"></rect><rect x="1" y="1" rx="10.5" ry="10.5" width="21" height="21" stroke="#ffffff" style="stroke-linejoin:round;stroke-miterlimit:4;" fill="#ffffff" stroke-width="2"></rect><rect x="1" y="1" width="21" height="21" rx="10.5" ry="10.5" fill="#4f4f4f"></rect><path fill="#fff" transform="translate(4 4)" d="M13.94,0,3.22,2.14v9.18a2.88,2.88,0,0,0-1.27,0C.71,11.68-.21,12.84,0,13.77s1.61,1.46,2.85,1.13a2.57,2.57,0,0,0,1.94-2.41V5l7.5-1.48v6a3.09,3.09,0,0,0-1.28.06C9.82,10,8.9,11.1,9.15,12s1.61,1.47,2.84,1.14a2.54,2.54,0,0,0,1.95-2.44Z"></path></svg>