<svg xmlns="http://www.w3.org/2000/svg" viewBox="0 0 27 27" height="27" width="27"><title>office_15.svg</title><rect fill="none" x="0" y="0" width="27" height="27"></rect><rect x="1" y="1" rx="12.5" ry="12.5" width="25" height="25" stroke="#ffffff" style="stroke-linejoin:round;stroke-miterlimit:4;" fill="#ffffff" stroke-width="2"></rect><rect x="1" y="1" width="25" height="25" rx="12.5" ry="12.5" fill="#a5bec2"></rect><path fill="#fff" transform="translate(4 4)" d="M8.4,11.5V9.8a.265.265,0,0,1,.3-.3h1.5a.265.265,0,0,1,.3.3v3.5a.265.265,0,0,1-.3.3H8.6c-.3,0-.3-.1-.3-.3A10.869,10.869,0,0,0,8.4,11.5Z"></path><path fill="#fff" transform="translate(4 4)" d="M7,11.6v1.7c0,.3-.1.4-.4.4H5.2c-.3,0-.4-.1-.4-.3V9.9c0-.3.1-.3.4-.3H6.6c.3-.1.4,0,.4.3Z"></path><path fill="#fff" transform="translate(4 4)" d="M12,11.6V9.9c0-.3.1-.4.4-.4h1.4a.265.265,0,0,1,.3.3v3.5c0,.2-.1.4-.3.4H12.4c-.3,0-.4-.1-.4-.3a10.8,10.8,0,0,0,0-1.8Z"></path><path fill="#fff" transform="translate(4 4)" d="M15.2,7.5c0-.1-.2-.2-.4-.3q-2.4-.9-5.1-1.8V4.5h1.6l.7-1H9.3V5.3C7.6,6,5.8,6.6,4.1,7.2a.462.462,0,0,0-.3.5V8c0,.5,0,.5.5.5H14.8c.1,0,.4,0,.4-.1Z"></path><path fill="#fff" transform="translate(4 4)" d="M3,14.7H16a.215.215,0,0,1,.2.2v.4a.215.215,0,0,1-.2.2H3a.215.215,0,0,1-.2-.2v-.4A.215.215,0,0,1,3,14.7Z"></path></svg>