<svg xmlns="http://www.w3.org/2000/svg" viewBox="0 0 23 23" height="23" width="23"><title>optician_15.svg</title><rect fill="none" x="0" y="0" width="23" height="23"></rect><rect x="1" y="1" rx="10.5" ry="10.5" width="21" height="21" stroke="#ffffff" style="stroke-linejoin:round;stroke-miterlimit:4;" fill="#ffffff" stroke-width="2"></rect><rect x="1" y="1" width="21" height="21" rx="10.5" ry="10.5" fill="#ba272a"></rect><path fill="#fff" transform="translate(4 4)" d="M5.36,3.21,0,6.43c0,2.14.27,5.36,1.34,5.36h4C6.43,11.79,6.7,8,6.7,8A1.68,1.68,0,0,1,8.3,8s.27,3.75,1.34,3.75h4c1.07,0,1.34-3.22,1.34-5.36L9.64,3.21c-.51-.29-.93.81,0,1.34l3.22,1.88H2.14L5.36,4.55C6.34,4,5.75,3,5.36,3.21Zm-4,4.56h4l-.54,2.68H1.88Zm8.3,0h4l-.53,2.68h-3Z"></path></svg>