<svg xmlns="http://www.w3.org/2000/svg" viewBox="0 0 23 23" height="23" width="23"><title>parking-garage-car_15.svg</title><rect fill="none" x="0" y="0" width="23" height="23"></rect><rect x="1" y="1" rx="10.5" ry="10.5" width="21" height="21" stroke="#ffffff" style="stroke-linejoin:round;stroke-miterlimit:4;" fill="#ffffff" stroke-width="2"></rect><rect x="1" y="1" width="21" height="21" rx="10.5" ry="10.5" fill="#4f4f4f"></rect><path fill="#fff" transform="translate(4 4)" d="M7.5,0,1.07,2.14V4.29L7.5,2.14l6.43,2.15V2.14Zm0,4.29-4.29,0V15H5.36V11.79H7.5c3.21,0,4.29-2.15,4.29-3.75S10.71,4.27,7.5,4.29ZM5.36,6.43H7.5c1.07,0,2.14.45,2.14,1.61S8.57,9.64,7.5,9.64H5.36Z"></path></svg>