<svg xmlns="http://www.w3.org/2000/svg" viewBox="0 0 23 23" height="23" width="23"><title>parking-bicycle_15.svg</title><rect fill="none" x="0" y="0" width="23" height="23"></rect><rect x="1" y="1" rx="10.5" ry="10.5" width="21" height="21" stroke="#ffffff" style="stroke-linejoin:round;stroke-miterlimit:4;" fill="#ffffff" stroke-width="2"></rect><rect x="1" y="1" width="21" height="21" rx="10.5" ry="10.5" fill="#4f4f4f"></rect><path fill="#fff" transform="translate(4 4)" d="M0,0V10.71H2.14V7H4.82C6.94,7,8.57,5.89,8.57,3.48A3.18,3.18,0,0,0,5.32,0ZM2.14,2.14H4.82c1,0,1.61.57,1.61,1.34A1.44,1.44,0,0,1,4.82,4.82H2.14ZM9.64,7.5v.64l.54.43v.81H7V9.11H7.5c.52,0,.49-.54,0-.54H5.89c-.53,0-.53.48,0,.54h.54v.27l-.61,1.37a1.72,1.72,0,0,0-.46,0,2.15,2.15,0,1,0,2.07,2.08,2.37,2.37,0,0,0,0-.47h.9l2-2.14.39.84a2.09,2.09,0,0,0-1,1.84,2.11,2.11,0,1,0,4.22-.07,2,2,0,0,0-2.07-2.08,2.42,2.42,0,0,0-.47.07l-.61-1.4v-1ZM6.86,10.18H9.21L7.94,11.52H7A1.8,1.8,0,0,0,6.5,11Zm-1.5,1.61a1.07,1.07,0,1,1-1.07,1.07A1.08,1.08,0,0,1,5.36,11.79Zm6.43,0a1.07,1.07,0,1,1-1.08,1.07A1.09,1.09,0,0,1,11.79,11.79Z"></path></svg>