<svg xmlns="http://www.w3.org/2000/svg" viewBox="0 0 23 23" height="23" width="23"><title>pet_15.svg</title><rect fill="none" x="0" y="0" width="23" height="23"></rect><rect x="1" y="1" rx="10.5" ry="10.5" width="21" height="21" stroke="#ffffff" style="stroke-linejoin:round;stroke-miterlimit:4;" fill="#ffffff" stroke-width="2"></rect><rect x="1" y="1" width="21" height="21" rx="10.5" ry="10.5" fill="#4f4f4f"></rect><path fill="#fff" transform="translate(4 4)" d="M10.09,0C8.75.16,8,1.62,7.9,2.89s.33,2.56,1.52,2.82c1,.09,1.84-.87,2.18-1.79A3.36,3.36,0,0,0,11.05.37,1.52,1.52,0,0,0,10.09,0ZM4.65.06C3.54.14,3,1.43,3.05,2.46A3.28,3.28,0,0,0,5.2,5.73c1,.11,1.73-1,1.79-1.94C7.12,2.32,6.47.55,5,.11A1,1,0,0,0,4.65.06ZM13.56,4.5c-1.49.11-2.43,1.7-2.49,3.13-.08.93.52,2.11,1.54,2C14.13,9.51,15,7.82,15,6.35A1.76,1.76,0,0,0,13.56,4.5ZM0,6.44C-.13,8,1,9.82,2.6,9.92c1-.06,1.44-1.2,1.33-2.1A3,3,0,0,0,1.8,5,1.45,1.45,0,0,0,0,6.44ZM7.67,7.79A4.33,4.33,0,0,0,4,10.12a7.52,7.52,0,0,0-1.23,3.33A1.55,1.55,0,0,0,4.59,15c1.26-.16,2.39-1,3.7-.87,1.08.09,2,.93,3.07.92a1.5,1.5,0,0,0,1.28-2.14,10.88,10.88,0,0,0-2.2-3.63A3.77,3.77,0,0,0,7.67,7.79Z"></path></svg>