<svg xmlns="http://www.w3.org/2000/svg" viewBox="0 0 23 23" height="23" width="23"><title>place-of-worship_15.svg</title><rect fill="none" x="0" y="0" width="23" height="23"></rect><rect x="1" y="1" rx="10.5" ry="10.5" width="21" height="21" stroke="#ffffff" style="stroke-linejoin:round;stroke-miterlimit:4;" fill="#ffffff" stroke-width="2"></rect><rect x="1" y="1" width="21" height="21" rx="10.5" ry="10.5" fill="#4f4f4f"></rect><path fill="#fff" transform="translate(4 4)" d="M7,0A1.61,1.61,0,1,0,8.57,1.61,1.61,1.61,0,0,0,7,0ZM1.25,4.9,2.68,7.5,5.89,6.43,7,10.71,4.82,12.86a1.42,1.42,0,0,0-.53,1.07A1,1,0,0,0,5.36,15h6.43a1.07,1.07,0,0,0,0-2.14H8.57l1.07-1.07c1.07-1.08,1-1.58.87-2.15L9.64,5.36c-.25-1-.92-1.43-2.14-1.23l-1.07.16L3.21,5.89,2.14,4.29C1.67,3.66.88,4.2,1.25,4.9Z"></path></svg>