<svg xmlns="http://www.w3.org/2000/svg" viewBox="0 0 23 23" height="23" width="23"><title>power-wind_15.svg</title><rect fill="none" x="0" y="0" width="23" height="23"></rect><rect x="1" y="1" rx="10.5" ry="10.5" width="21" height="21" stroke="#ffffff" style="stroke-linejoin:round;stroke-miterlimit:4;" fill="#ffffff" stroke-width="2"></rect><rect x="1" y="1" width="21" height="21" rx="10.5" ry="10.5" fill="#4f4f4f"></rect><path fill="#fff" transform="translate(4 4)" d="M12.55.54c-.76-.11-2.69,1.09-5,3.31A1.62,1.62,0,0,1,9,5.39C11.3,3.2,12.64,1.34,12.55.54ZM2.07,3.48A2.43,2.43,0,0,0,.7,3.79C1,4.48,3.05,5.43,6.2,6.16a1.6,1.6,0,0,1,.5-2.07A19.06,19.06,0,0,0,2.07,3.48ZM7.5,4.82A.54.54,0,1,0,8,5.36.54.54,0,0,0,7.5,4.82ZM8.91,5.93a1.63,1.63,0,0,1-2,.83c1.26,3,2.57,4.79,3.32,5C10.64,11.05,10.15,8.85,8.91,5.93Zm-2,2.37-.43,5.63H4.29V15h6.42V13.93H8.57l-.23-3C7.86,10.17,7.37,9.29,6.86,8.3Z"></path></svg>