<svg xmlns="http://www.w3.org/2000/svg" viewBox="0 0 23 23" height="23" width="23"><title>railway-station_15.svg</title><rect fill="none" x="0" y="0" width="23" height="23"></rect><rect x="1" y="1" rx="10.5" ry="10.5" width="21" height="21" stroke="#ffffff" style="stroke-linejoin:round;stroke-miterlimit:4;" fill="#ffffff" stroke-width="2"></rect><rect x="1" y="1" width="21" height="21" rx="10.5" ry="10.5" fill="#4f4f4f"></rect><path fill="#fff" transform="translate(4 4)" d="M5.36,0C3.24,0,1.07,3.21,1.07,7.5V9.64a2.31,2.31,0,0,0,2.14,2.15h8.58a2.31,2.31,0,0,0,2.14-2.15V7.5c0-4.29-2.14-7.5-4.29-7.5ZM4.29,3.21h6.42a4.71,4.71,0,0,1,1.08,3.22H3.25A4.55,4.55,0,0,1,4.29,3.21ZM3.21,8.57H6.43V9.64H3.21Zm5.36,0h3.22V9.64H8.57ZM2.14,12.86,1.07,15H4.29l1.07-2.14Zm7.5,0L10.71,15h3.22l-1.07-2.14Z"></path></svg>