<svg xmlns="http://www.w3.org/2000/svg" viewBox="0 0 23 23" height="23" width="23"><title>railway-halt_15.svg</title><rect fill="none" x="0" y="0" width="23" height="23"></rect><rect x="1" y="1" rx="10.5" ry="10.5" width="21" height="21" stroke="#ffffff" style="stroke-linejoin:round;stroke-miterlimit:4;" fill="#ffffff" stroke-width="2"></rect><rect x="1" y="1" width="21" height="21" rx="10.5" ry="10.5" fill="#4f4f4f"></rect><path fill="#fff" transform="translate(4 4)" d="M4.25,0,1.07,3.21v7.5a1.06,1.06,0,0,0,1.11,1.08H12.86a1,1,0,0,0,1.07-1.08V3.21L10.71,0ZM5.39,1.07H9.64V2.14H5.39ZM3.25,3.21h8.54V7.5H3.25Zm.84,5.36h0A1.12,1.12,0,0,1,5.36,9.64a1.11,1.11,0,0,1-1.07,1.07,1.08,1.08,0,0,1-.2-2.14Zm6.46,0a1.12,1.12,0,0,1,1.24,1.07,1.08,1.08,0,1,1-1.24-1.07ZM2.14,12.86,1.07,15H4.29l1.07-2.14Zm7.5,0L10.71,15h3.22l-1.07-2.14Z"></path></svg>