<svg xmlns="http://www.w3.org/2000/svg" viewBox="0 0 23 23" height="23" width="23"><title>recycling_15.svg</title><rect fill="none" x="0" y="0" width="23" height="23"></rect><rect x="1" y="1" rx="10.5" ry="10.5" width="21" height="21" stroke="#ffffff" style="stroke-linejoin:round;stroke-miterlimit:4;" fill="#ffffff" stroke-width="2"></rect><rect x="1" y="1" width="21" height="21" rx="10.5" ry="10.5" fill="#4f4f4f"></rect><path fill="#fff" transform="translate(4 4)" d="M5.48,9.31,3.77,6.22H.32l1.4.84L.86,8.61A.84.84,0,0,0,.75,9a.85.85,0,0,0,.11.44L2.22,12a3.7,3.7,0,0,1,.18-.46l1.7-3ZM2.92,11.79a1,1,0,0,0-.15.54,1,1,0,0,0,.3.74,1,1,0,0,0,.73.31H7.19V10.53H3.62l-.28.5Zm4.58-7h3.43l1.73-3.09-1.4.84L10.39,1A.78.78,0,0,0,9.66.51H6.93a4.07,4.07,0,0,1,.28.38l1.67,3-.27.17ZM5.83.66a1,1,0,0,0-.89.54L3.23,4.25c.65.4,1.44.87,2.38,1.41l1.78-3.2L6.71,1.2A.94.94,0,0,0,5.83.66Zm4.4,9.84V8.84L8.52,11.93,10.23,15V13.34h1.71a.82.82,0,0,0,.75-.44l1.36-2.46a1.78,1.78,0,0,1-.46.08Zm2.54-5.23L10.39,6.68C11.15,8,11.75,9.11,12.2,9.9h1.38a1,1,0,0,0,.9-.53,1,1,0,0,0,0-1Z"></path></svg>