<svg xmlns="http://www.w3.org/2000/svg" viewBox="0 0 23 23" height="23" width="23"><title>rental-car_15.svg</title><rect fill="none" x="0" y="0" width="23" height="23"></rect><rect x="1" y="1" rx="10.5" ry="10.5" width="21" height="21" stroke="#ffffff" style="stroke-linejoin:round;stroke-miterlimit:4;" fill="#ffffff" stroke-width="2"></rect><rect x="1" y="1" width="21" height="21" rx="10.5" ry="10.5" fill="#4f4f4f"></rect><path fill="#fff" transform="translate(4 4)" d="M3.75,0A2.68,2.68,0,1,0,6.06,4H7.5L8.57,3,9.64,4,10.71,3,11.79,4h.53l1.61-1.34L12.32,1.34H6.06A2.66,2.66,0,0,0,3.75,0ZM2.68,2.14a.54.54,0,1,1-.54.54A.54.54,0,0,1,2.68,2.14ZM4.29,6.43,3.21,9.64a1.08,1.08,0,0,0-1.07,1.07v3.22H3.21A1.05,1.05,0,0,0,4.29,15a1,1,0,0,0,1.07-1.07H9.64a1.08,1.08,0,0,0,2.15,0h1.07V10.71a1.1,1.1,0,0,0-1.07-1.07L10.71,6.43ZM5.36,7.5H9.64l.67,2.14H4.69ZM4.29,11a.81.81,0,1,1-.81.81A.8.8,0,0,1,4.29,11Zm6.42,0a.81.81,0,1,1-.8.81A.81.81,0,0,1,10.71,11Z"></path></svg>