<svg xmlns="http://www.w3.org/2000/svg" viewBox="0 0 23 23" height="23" width="23"><title>rental-bicycle_15.svg</title><rect fill="none" x="0" y="0" width="23" height="23"></rect><rect x="1" y="1" rx="10.5" ry="10.5" width="21" height="21" stroke="#ffffff" style="stroke-linejoin:round;stroke-miterlimit:4;" fill="#ffffff" stroke-width="2"></rect><rect x="1" y="1" width="21" height="21" rx="10.5" ry="10.5" fill="#4f4f4f"></rect><path fill="#fff" transform="translate(4 4)" d="M3.75,0A2.68,2.68,0,1,0,6.06,4H7.5L8.57,3,9.64,4,10.71,3,11.79,4h.53l1.61-1.34L12.32,1.34H6.06A2.66,2.66,0,0,0,3.75,0ZM2.68,2.14a.54.54,0,1,1-.54.54A.54.54,0,0,1,2.68,2.14ZM8.57,5.82l0,1.08,1,.6V8.57H5.36V7.5h.53C7,7.5,7,6.43,5.89,6.43H3.75c-1.07,0-1.07,1.07,0,1.07h.54V8.57L3.68,10H3.55A2.48,2.48,0,1,0,6,12.52a2.25,2.25,0,0,0-.14-.73H7.5L9.81,9.64l.3.77A2.57,2.57,0,0,0,9,12.52,2.49,2.49,0,0,0,11.45,15a2.48,2.48,0,1,0,0-5h-.13l-.61-1.47V7.1ZM5.19,9.64H8.52L7.13,11H5.46a2.8,2.8,0,0,0-.57-.57ZM3.55,11.25a1.27,1.27,0,1,1-1.27,1.27A1.26,1.26,0,0,1,3.55,11.25Zm7.9,0a1.27,1.27,0,1,1,0,2.54,1.27,1.27,0,0,1,0-2.54Z"></path></svg>