<svg xmlns="http://www.w3.org/2000/svg" viewBox="0 0 23 23" height="23" width="23"><title>shintoist_15.svg</title><rect fill="none" x="0" y="0" width="23" height="23"></rect><rect x="1" y="1" rx="10.5" ry="10.5" width="21" height="21" stroke="#ffffff" style="stroke-linejoin:round;stroke-miterlimit:4;" fill="#ffffff" stroke-width="2"></rect><rect x="1" y="1" width="21" height="21" rx="10.5" ry="10.5" fill="#4f4f4f"></rect><path fill="#fff" transform="translate(4 4)" d="M0,0A3,3,0,0,0,1.07,2.13c.37.37.9.22.9.5a.8.8,0,0,0,.71.57H4a.8.8,0,0,0,.27.53A.61.61,0,0,0,4,4.27H2.68c-.54,0-.54.27-.54.53V5.88a.57.57,0,0,0,.54.53H4V7.48H3.21A1.26,1.26,0,0,0,4,8.55v5.9c0,.7,1.61.76,1.61,0v-8H9.38v8c0,.74,1.6.69,1.6,0V8.55c.52-.33.81-.63.81-1.07H11V6.41h1.34a.62.62,0,0,0,.54-.53V4.8c0-.53-.3-.53-.54-.53H11a.76.76,0,0,0-.27-.54A.8.8,0,0,0,11,3.2h1.34a.53.53,0,0,0,.54-.54c0-.25.62-.15,1.07-.53A2.77,2.77,0,0,0,15,0C8.57,1.07,5.36,1.07,0,0ZM5.63,3.2H6.7V4.27H5.63a.81.81,0,0,0-.27-.54A.72.72,0,0,0,5.63,3.2Zm2.67,0H9.38a.87.87,0,0,0,.26.53.92.92,0,0,0-.26.54H8.3Z"></path></svg>