<svg xmlns="http://www.w3.org/2000/svg" viewBox="0 0 23 23" height="23" width="23"><title>shoes_15.svg</title><rect fill="none" x="0" y="0" width="23" height="23"></rect><rect x="1" y="1" rx="10.5" ry="10.5" width="21" height="21" stroke="#ffffff" style="stroke-linejoin:round;stroke-miterlimit:4;" fill="#ffffff" stroke-width="2"></rect><rect x="1" y="1" width="21" height="21" rx="10.5" ry="10.5" fill="#4f4f4f"></rect><path fill="#fff" transform="translate(4 4)" d="M.8,3.21A19.8,19.8,0,0,0,0,8.84H5.89c.54,0,1.4,1.07,1.4,1.07H15c0-3.21-3.21-3.48-4.29-3.48H8.57A8.05,8.05,0,0,0,5.36,3.21H5.09c-.8,1.62-2.93,1.62-4,0ZM5.89,4.29a.54.54,0,1,1-.53.53A.54.54,0,0,1,5.89,4.29ZM7,5.36a.54.54,0,1,1-.53.53A.54.54,0,0,1,7,5.36ZM0,9.64v2.15H5.63V9.64Zm7.82,1.07s.75,1.08,1.29,1.08H15V10.71Z"></path></svg>