<svg xmlns="http://www.w3.org/2000/svg" viewBox="0 0 23 23" height="23" width="23"><title>sikhist_15.svg</title><rect fill="none" x="0" y="0" width="23" height="23"></rect><rect x="1" y="1" rx="10.5" ry="10.5" width="21" height="21" stroke="#ffffff" style="stroke-linejoin:round;stroke-miterlimit:4;" fill="#ffffff" stroke-width="2"></rect><rect x="1" y="1" width="21" height="21" rx="10.5" ry="10.5" fill="#4f4f4f"></rect><path fill="#fff" transform="translate(4 4)" d="M7.48,0,6.41,1.07c.07.47.08.83.13,1.24a3.17,3.17,0,0,0,0,6.09c-.06.41-.1.79-.17,1.24l.54.54v.43a20,20,0,0,1-2.69-2,4.83,4.83,0,0,1,1.08-7.5A5.55,5.55,0,0,0,1.07,6.43c0,3.21,3.19,4.28,3.19,5.36l1.08-1.08,1.37.77-1.37.84.53.54L7,12.22V13a1.06,1.06,0,0,0-.6.94,1.08,1.08,0,0,0,2.15,0A1,1,0,0,0,8,13v-.77l1.1.64.54-.54-1.34-.84,1.34-.77,1.08,1.08c0-1.08,3.22-2.15,3.22-5.36a5.58,5.58,0,0,0-4.3-5.36,4.83,4.83,0,0,1,1.08,7.5A20,20,0,0,1,8,10.65v-.47l.54-.54c-.08-.44-.12-.83-.17-1.24a3.16,3.16,0,0,0,0-6.09c0-.41.09-.79.17-1.24Zm.77,3.35a2.15,2.15,0,0,1,0,4A22.49,22.49,0,0,1,8.25,3.35Zm-1.61,0s0,0,0,0a19.78,19.78,0,0,1,0,4,2.16,2.16,0,0,1-.07-4ZM4.8,12.86a.54.54,0,1,0,0,1.07.54.54,0,1,0,0-1.07Zm5.37,0a.54.54,0,1,0,0,1.07.54.54,0,1,0,0-1.07Z"></path></svg>