<svg xmlns="http://www.w3.org/2000/svg" viewBox="0 0 23 23" height="23" width="23"><title>spring_15.svg</title><rect fill="none" x="0" y="0" width="23" height="23"></rect><rect x="1" y="1" rx="10.5" ry="10.5" width="21" height="21" stroke="#ffffff" style="stroke-linejoin:round;stroke-miterlimit:4;" fill="#ffffff" stroke-width="2"></rect><rect x="1" y="1" width="21" height="21" rx="10.5" ry="10.5" fill="#4f4f4f"></rect><path fill="#fff" transform="translate(4 4)" d="M8.57,0C6.93,0,5.36,1.07,5.36,2.68S6.43,4.86,7.5,8.57c1.07-3.68,3.62-4.28,3.75-5.89A2.45,2.45,0,0,0,8.57,0ZM2.68,7C.52,7,.09,9.86,1.61,11.25S4.7,12.43,6.43,15a8.26,8.26,0,0,0,0-4.29C6.13,9.64,4.84,7,2.68,7Zm9.64.54c-2.16,0-3.44,2.14-3.75,3.21a8.26,8.26,0,0,0,0,4.29c1.73-2.57,3.84-1.82,5.36-3.21A2.52,2.52,0,0,0,12.32,7.5Z"></path></svg>