<svg xmlns="http://www.w3.org/2000/svg" viewBox="0 0 19 19" height="19" width="19"><title>square-stroke_11.svg</title><rect fill="none" x="0" y="0" width="19" height="19"></rect><rect x="1" y="1" rx="8.5" ry="8.5" width="17" height="17" stroke="#ffffff" style="stroke-linejoin:round;stroke-miterlimit:4;" fill="#ffffff" stroke-width="2"></rect><rect x="1" y="1" width="17" height="17" rx="8.5" ry="8.5" fill="#4f4f4f"></rect><path fill="#fff" transform="translate(4 4)" d="M9.19,1H1.81C1.3626,1,1,1.3626,1,1.81v7.38C1,9.6374,1.3626,10,1.81,10c0,0,0,0,0,0h7.38C9.6374,10,10,9.6374,10,9.19v0
	V1.81C10,1.3626,9.6374,1,9.19,1L9.19,1L9.19,1z M2,2h7v7H2V2z"></path></svg>