<svg xmlns="http://www.w3.org/2000/svg" viewBox="0 0 23 23" height="23" width="23"><title>stationery_15.svg</title><rect fill="none" x="0" y="0" width="23" height="23"></rect><rect x="1" y="1" rx="10.5" ry="10.5" width="21" height="21" stroke="#ffffff" style="stroke-linejoin:round;stroke-miterlimit:4;" fill="#ffffff" stroke-width="2"></rect><rect x="1" y="1" width="21" height="21" rx="10.5" ry="10.5" fill="#4f4f4f"></rect><path fill="#fff" transform="translate(4 4)" d="M6.7,0,1.07,8.57a4.64,4.64,0,0,1,3.22,4.29h6.42a4.58,4.58,0,0,1,3.22-4.29L8.3,0V5.66A2.07,2.07,0,0,1,9.64,7.5a2.14,2.14,0,0,1-4.28,0A2.07,2.07,0,0,1,6.7,5.66ZM4.29,13.93,3.75,15h7.5l-.54-1.07Z"></path></svg>