<svg xmlns="http://www.w3.org/2000/svg" viewBox="0 0 23 23" height="23" width="23"><title>supermarket_15.svg</title><rect fill="none" x="0" y="0" width="23" height="23"></rect><rect x="1" y="1" rx="10.5" ry="10.5" width="21" height="21" stroke="#ffffff" style="stroke-linejoin:round;stroke-miterlimit:4;" fill="#ffffff" stroke-width="2"></rect><rect x="1" y="1" width="21" height="21" rx="10.5" ry="10.5" fill="#4f4f4f"></rect><path fill="#fff" transform="translate(4 4)" d="M0,0V1.07H1.07L2.14,11.79H12.86V10.71H3.21L3.08,9.64h9.78L15,3.21H2.51L2.14,0ZM3.21,12.86a1.07,1.07,0,1,0,1.08,1.07A1.07,1.07,0,0,0,3.21,12.86Zm8.58,0a1.07,1.07,0,1,0,1.07,1.07A1.08,1.08,0,0,0,11.79,12.86Z"></path></svg>