<svg xmlns="http://www.w3.org/2000/svg" viewBox="0 0 25 25" height="25" width="25"><title>swimming_11.svg</title><rect fill="none" x="0" y="0" width="25" height="25"></rect><rect x="2" y="2" rx="11.5" ry="11.5" width="21" height="21" stroke="#ffffff" style="stroke-linejoin:round;stroke-miterlimit:4;" fill="#ffffff" stroke-width="2"></rect><rect x="2" y="2" width="21" height="21" rx="11.5" ry="11.5" fill="#695a5a"></rect><path fill="#fff" transform="translate(5 5)" d="M9.6,8.8c.2-.1.4-.1.6-.2a1.479,1.479,0,0,1,1.3.4l.3.3a2.186,2.186,0,0,0,.5.3.215.215,0,0,1,.2.2v.4a.215.215,0,0,1-.2.2,1.8,1.8,0,0,1-.9-.4L11,9.6a.785.785,0,0,0-1.1,0c-.1,0-.2.2-.3.3a1.529,1.529,0,0,1-1.8.3,1.756,1.756,0,0,1-.5-.4c-.1-.1-.1-.2-.2-.2A.785.785,0,0,0,6,9.6a1.38,1.38,0,0,0-.4.3,1.45,1.45,0,0,1-2.1,0,1.38,1.38,0,0,1-.4-.3c-.1-.1-.3-.2-.4-.3a.215.215,0,0,1-.2-.2h0V8.7a.215.215,0,0,1,.2-.2,5.582,5.582,0,0,1,.8.5l.4.4A.785.785,0,0,0,5,9.4c.2-.1.3-.3.5-.4V4.3a.458.458,0,0,0-.4-.5.486.486,0,0,0-.6.3c0,.1-.1.2-.3.2H3.9c-.2,0-.2-.1-.2-.2a1.285,1.285,0,0,1,1-1,1.174,1.174,0,0,1,1.4,1v.8H8.8V4a.458.458,0,0,0-.5-.4c-.1,0-.3.1-.4.4,0,.2-.2.3-.3.2H7.3c-.1,0-.1-.1-.2-.2V3.9A1.244,1.244,0,0,1,8.5,2.8,1.482,1.482,0,0,1,9.7,4.2V8.7Zm-.9-1H6.5v.8c.6-.1.8.1,1.2.6l.3.3a.661.661,0,0,0,.6.1.1.1,0,0,0,.1-.1ZM8.6,5.9H6.5v.9H8.6Z"></path><path fill="#fff" transform="translate(5 5)" d="M2.5,10.7h0c0-.3,0-.4.3-.3a1.612,1.612,0,0,1,.7.4l.4.4a.785.785,0,0,0,1.1,0l.3-.3a1.677,1.677,0,0,1,2.2-.1h0l.3.3a.91.91,0,0,0,1.2,0H9l.4-.4a1.657,1.657,0,0,1,2.1,0l.3.3a2.186,2.186,0,0,0,.5.3.215.215,0,0,1,.2.2v.3c0,.2-.1.2-.2.2a1.8,1.8,0,0,1-.9-.4l-.4-.4a.785.785,0,0,0-1.1,0l-.4.4a1.789,1.789,0,0,1-1.7.3,1.756,1.756,0,0,1-.5-.4L7,11.2a.785.785,0,0,0-1.1,0l-.4.4a1.658,1.658,0,0,1-2.1,0l-.3-.3a2.186,2.186,0,0,0-.5-.3.215.215,0,0,1-.2-.2v-.1Z"></path></svg>