<svg xmlns="http://www.w3.org/2000/svg" viewBox="0 0 29 29" height="29" width="29"><title>swimming_15.svg</title><rect fill="none" x="0" y="0" width="29" height="29"></rect><rect x="2" y="2" rx="13.5" ry="13.5" width="25" height="25" stroke="#ffffff" style="stroke-linejoin:round;stroke-miterlimit:4;" fill="#ffffff" stroke-width="2"></rect><rect x="2" y="2" width="25" height="25" rx="13.5" ry="13.5" fill="#695a5a"></rect><path fill="#fff" transform="translate(5 5)" d="M12.51,11.03a6.693,6.693,0,0,1,.818-.256,2.082,2.082,0,0,1,1.883.576c.138.129.271.265.407.4a1.278,1.278,0,0,0,.664.374.241.241,0,0,1,.214.253c0,.177.007.356,0,.533s-.1.248-.288.226a2.091,2.091,0,0,1-1.192-.566c-.19-.175-.368-.363-.563-.532a1.125,1.125,0,0,0-1.5-.013c-.18.15-.343.321-.511.486a2.14,2.14,0,0,1-2.493.423,4.555,4.555,0,0,1-.7-.522c-.129-.1-.236-.235-.36-.346a1.135,1.135,0,0,0-1.576-.005c-.185.164-.354.346-.537.51a2.145,2.145,0,0,1-2.94.014c-.159-.141-.306-.294-.459-.442a1.279,1.279,0,0,0-.664-.375A.245.245,0,0,1,2.5,11.5c0-.166,0-.333,0-.5.005-.192.1-.264.288-.242a2.09,2.09,0,0,1,1.18.555c.186.171.36.355.549.522a1.126,1.126,0,0,0,1.55.012c.208-.179.4-.375.6-.569a.232.232,0,0,0,.055-.151q0-3.195,0-6.391a.745.745,0,0,0-.594-.745.735.735,0,0,0-.849.484.322.322,0,0,1-.362.244c-.137-.01-.276,0-.414,0-.226,0-.288-.077-.257-.3A1.772,1.772,0,0,1,5.691,2.983,1.748,1.748,0,0,1,7.73,4.715c.006.3,0,.595,0,.907h3.742c0-.426.028-.851-.009-1.27a.7.7,0,0,0-.656-.566.713.713,0,0,0-.731.441.4.4,0,0,1-.478.308c-.125-.013-.253,0-.379,0a.2.2,0,0,1-.207-.267,1.758,1.758,0,0,1,3.495.265c.005,2.107,0,4.215,0,6.322Zm-4.769-.266a2.263,2.263,0,0,1,2.084.785,3.022,3.022,0,0,0,.419.381,1.126,1.126,0,0,0,1.143.1.148.148,0,0,0,.11-.162c-.007-.809,0-1.618,0-2.427,0-.06-.005-.12-.008-.174H7.741Zm3.742-4.109H7.744V8.224h3.739Z"></path><path fill="#fff" transform="translate(5 5)" d="M2.5,13.686v-.069c0-.421.067-.474.476-.386a2.133,2.133,0,0,1,1.005.537c.185.171.359.356.55.52a1.127,1.127,0,0,0,1.535,0c.161-.138.306-.294.461-.44a2.161,2.161,0,0,1,3.119-.022c.143.133.277.276.421.408a1.142,1.142,0,0,0,1.653.005c.178-.162.344-.338.524-.5a2.142,2.142,0,0,1,2.874-.025c.166.142.316.3.473.452a1.334,1.334,0,0,0,.69.4.249.249,0,0,1,.216.27c0,.161,0,.322,0,.482,0,.216-.093.285-.3.258a2.128,2.128,0,0,1-1.214-.6c-.176-.166-.342-.341-.525-.5a1.121,1.121,0,0,0-1.5-.014c-.2.169-.38.368-.576.543a2.143,2.143,0,0,1-2.429.367,4.239,4.239,0,0,1-.675-.5c-.137-.111-.252-.251-.385-.369a1.135,1.135,0,0,0-1.589,0c-.188.169-.361.354-.55.522a2.147,2.147,0,0,1-2.927-.02c-.157-.142-.3-.3-.458-.442a1.262,1.262,0,0,0-.651-.363.245.245,0,0,1-.215-.27v-.258Z"></path></svg>