<svg xmlns="http://www.w3.org/2000/svg" viewBox="0 0 23 23" height="23" width="23"><title>table_15.svg</title><rect fill="none" x="0" y="0" width="23" height="23"></rect><rect x="1" y="1" rx="10.5" ry="10.5" width="21" height="21" stroke="#ffffff" style="stroke-linejoin:round;stroke-miterlimit:4;" fill="#ffffff" stroke-width="2"></rect><rect x="1" y="1" width="21" height="21" rx="10.5" ry="10.5" fill="#4f4f4f"></rect><path fill="#fff" transform="translate(4 4)" d="M3.21,2.14c-1.41,0-1.41,1.61,0,1.61h8.58c1.43,0,1.43-1.61,0-1.61ZM4.29,4.29,3.48,7.5H1.07c-1.41,0-1.41,1.61,0,1.61h2l-.94,3.75H3.75l.94-3.75h5.62l.94,3.75h1.61l-.94-3.75h2c1.43,0,1.43-1.61,0-1.61H11.52l-.81-3.21H9.11l.8,3.21H5.09l.8-3.21Z"></path></svg>