<svg xmlns="http://www.w3.org/2000/svg" viewBox="0 0 23 23" height="23" width="23"><title>taoist_15.svg</title><rect fill="none" x="0" y="0" width="23" height="23"></rect><rect x="1" y="1" rx="10.5" ry="10.5" width="21" height="21" stroke="#ffffff" style="stroke-linejoin:round;stroke-miterlimit:4;" fill="#ffffff" stroke-width="2"></rect><rect x="1" y="1" width="21" height="21" rx="10.5" ry="10.5" fill="#f2aaa2"></rect><path fill="#ffffff" transform="translate(4 4)" d="M7.5,15A7.5,7.5,0,1,0,0,7.5,7.53,7.53,0,0,0,7.5,15Zm0-1.07a6.43,6.43,0,0,1,0-12.86c3.21,0,4.29,5.87,0,6.43S4.38,13.93,7.5,13.93Zm0-2.14a1.08,1.08,0,1,1,1.07-1.08A1.08,1.08,0,0,1,7.5,11.79Zm0-6.43A1.08,1.08,0,1,0,6.43,4.29,1.07,1.07,0,0,0,7.5,5.36Z"></path></svg>