<svg xmlns="http://www.w3.org/2000/svg" viewBox="0 0 23 23" height="23" width="23"><title>taxi_15.svg</title><rect fill="none" x="0" y="0" width="23" height="23"></rect><rect x="1" y="1" rx="10.5" ry="10.5" width="21" height="21" stroke="#ffffff" style="stroke-linejoin:round;stroke-miterlimit:4;" fill="#ffffff" stroke-width="2"></rect><rect x="1" y="1" width="21" height="21" rx="10.5" ry="10.5" fill="#4f4f4f"></rect><path fill="#fff" transform="translate(4 4)" d="M6.39,0a1.08,1.08,0,0,0-1,1.07l0,1.07H3.21L1.88,6.43A1.89,1.89,0,0,0,0,8.57v4.29H2.14v1.07A1,1,0,0,0,3.21,15a1.05,1.05,0,0,0,1.08-1.07V12.86l6.42,0v1.11a1.08,1.08,0,0,0,2.15,0V12.86H15V8.57a1.94,1.94,0,0,0-2.14-2.14L11.79,2.14H9.64V1.07A1,1,0,0,0,8.57,0Zm0,1.07H8.57V2.14H6.43ZM4.29,3.75h6.42l.64,2.68H3.55ZM3.21,8.57A1.07,1.07,0,1,1,2.14,9.64,1.08,1.08,0,0,1,3.21,8.57Zm8.58,0a1.07,1.07,0,1,1-1.08,1.07A1.07,1.07,0,0,1,11.79,8.57Z"></path></svg>