<svg xmlns="http://www.w3.org/2000/svg" viewBox="0 0 23 23" height="23" width="23"><title>toilets_15.svg</title><rect fill="none" x="0" y="0" width="23" height="23"></rect><rect x="1" y="1" rx="10.5" ry="10.5" width="21" height="21" stroke="#ffffff" style="stroke-linejoin:round;stroke-miterlimit:4;" fill="#ffffff" stroke-width="2"></rect><rect x="1" y="1" width="21" height="21" rx="10.5" ry="10.5" fill="#4f4f4f"></rect><path fill="#fff" transform="translate(4 4)" d="M6.7,0V15H8.3V0Zm-4,1.07A1.61,1.61,0,1,0,4.29,2.68,1.61,1.61,0,0,0,2.68,1.07Zm9.64,0a1.61,1.61,0,1,0,1.61,1.61A1.61,1.61,0,0,0,12.32,1.07ZM1.61,5.36A1.11,1.11,0,0,0,.54,6.43C.54,7,1.88,8,1.88,8.57S0,9.64,0,11.79H1.88V15h1.6V11.79H5.36c0-2.15-1.88-2.65-1.88-3.22S4.82,7,4.82,6.43A1.16,1.16,0,0,0,3.75,5.36Zm9.1,0A1.11,1.11,0,0,0,9.64,6.43c0,1.07,1.88,4.3,1.88,5.36V15h1.61V11.79c0-1,1.87-4.29,1.87-5.36a1.07,1.07,0,0,0-1.07-1.07Z"></path></svg>