<svg xmlns="http://www.w3.org/2000/svg" viewBox="0 0 23 23" height="23" width="23"><title>toys_15.svg</title><rect fill="none" x="0" y="0" width="23" height="23"></rect><rect x="1" y="1" rx="10.5" ry="10.5" width="21" height="21" stroke="#ffffff" style="stroke-linejoin:round;stroke-miterlimit:4;" fill="#ffffff" stroke-width="2"></rect><rect x="1" y="1" width="21" height="21" rx="10.5" ry="10.5" fill="#4f4f4f"></rect><path fill="#fff" transform="translate(4 4)" d="M2.14,1.34a1.32,1.32,0,0,1,0,1.87A11.25,11.25,0,0,0,1.07,5.36a1.14,1.14,0,0,0,1.07.84A6.64,6.64,0,0,0,3.21,5.09,5,5,0,0,1,4.29,7.5a16.22,16.22,0,0,1-1.08,3.08,4.72,4.72,0,0,0,1.08.54S5.38,8.85,6.43,8.57a4.43,4.43,0,0,1,2.14,0c1.06.29,2.14,2.55,2.14,2.55a7.76,7.76,0,0,0,1.08-.54s-.93-2-1.08-2.54a3.34,3.34,0,0,1,0-2.15c1.39-.8,2.68-.1,2.68,2.15a3.21,3.21,0,0,0,1.07-2.15,2.45,2.45,0,0,0-4.28-1.07,6.23,6.23,0,0,0-4.29-.27C5.89,2.14,3.71,1.34,2.14,1.34Zm.67,1.87a.41.41,0,1,1-.4.41A.4.4,0,0,1,2.81,3.21Zm-.93,7.5-.81,1.08A8.84,8.84,0,0,0,7.5,14.2a8.84,8.84,0,0,0,6.43-2.41l-.8-1.08A9.38,9.38,0,0,1,7.5,12.86,9.34,9.34,0,0,1,1.88,10.71Z"></path></svg>