<svg xmlns="http://www.w3.org/2000/svg" viewBox="0 0 23 23" height="23" width="23"><title>tram-stop_15.svg</title><rect fill="none" x="0" y="0" width="23" height="23"></rect><rect x="1" y="1" rx="10.5" ry="10.5" width="21" height="21" stroke="#ffffff" style="stroke-linejoin:round;stroke-miterlimit:4;" fill="#ffffff" stroke-width="2"></rect><rect x="1" y="1" width="21" height="21" rx="10.5" ry="10.5" fill="#4f4f4f"></rect><path fill="#fff" transform="translate(4 4)" d="M5.36,0A2.31,2.31,0,0,0,3.21,2.14V9.63a2.31,2.31,0,0,0,2.15,2.14H9.64a2.31,2.31,0,0,0,2.15-2.14V2.14A2.31,2.31,0,0,0,9.64,0Zm0,1.07H9.64V2.14H5.36Zm0,2.14H9.64a1.07,1.07,0,0,1,1.07,1.07V6.42A1,1,0,0,1,9.64,7.49H5.36A1,1,0,0,1,4.29,6.42V4.28A1.07,1.07,0,0,1,5.36,3.21ZM7.5,8.56A1.07,1.07,0,1,1,6.43,9.63,1.07,1.07,0,0,1,7.5,8.56ZM3.21,12.82,2.14,15l3.22,0,1.07-2.16Zm5.36,0L9.64,15h3.22l-1.07-2.14Z"></path></svg>