<svg xmlns="http://www.w3.org/2000/svg" viewBox="0 0 23 23" height="23" width="23"><title>tree-deciduous_15.svg</title><rect fill="none" x="0" y="0" width="23" height="23"></rect><rect x="1" y="1" rx="10.5" ry="10.5" width="21" height="21" stroke="#3a7a3a" style="stroke-linejoin:round;stroke-miterlimit:4;" fill="#3a7a3a" stroke-width="2"></rect><rect x="1" y="1" width="21" height="21" rx="10.5" ry="10.5" fill="#3a7a3a"></rect><path fill="#ffffff" transform="translate(4 4)" d="M8.3,15V11.79H9.64c2.71,0,3.8-3.75,1.07-4.83A2.21,2.21,0,0,0,9.64,3,1.93,1.93,0,0,0,7.5,1.07,1.93,1.93,0,0,0,5.36,3,2.21,2.21,0,0,0,4.29,7C1.61,8,2.68,11.79,5.36,11.79H6.7V15Z"></path></svg>