<svg xmlns="http://www.w3.org/2000/svg" viewBox="0 0 23 23" height="23" width="23"><title>tree-unspecified_15.svg</title><rect fill="none" x="0" y="0" width="23" height="23"></rect><rect x="1" y="1" rx="10.5" ry="10.5" width="21" height="21" stroke="#3a7a3a" style="stroke-linejoin:round;stroke-miterlimit:4;" fill="#3a7a3a" stroke-width="2"></rect><rect x="1" y="1" width="21" height="21" rx="10.5" ry="10.5" fill="#3a7a3a"></rect><path fill="#ffffff" transform="translate(4 4)" d="M3.62,2.14.47,5.36H2.71L0,8H2.28L0,10.71H3v2.15H4.32V10.71H7.27L5,8H7.27L4.82,5.36h2Zm7.5,0A1.31,1.31,0,0,0,9.74,3.21a1.75,1.75,0,0,0-.9,3.22c-2.27.91-1.37,4.28.9,4.28h.67v2.15h1.38V10.71h.67c2.28,0,3.21-3.37.9-4.28a1.76,1.76,0,0,0-.9-3.22A1.22,1.22,0,0,0,11.12,2.14Z"></path></svg>