<svg xmlns="http://www.w3.org/2000/svg" viewBox="0 0 19 19" height="19" width="19"><title>vechicle_shop_11.svg</title><rect fill="none" x="0" y="0" width="19" height="19"></rect><rect x="0" y="0" width="19" height="19" rx="9.5" ry="9.5" fill="#3289fa"></rect><path fill="#fff" transform="translate(2 2)" d="M11,5.75,10.747,5h-.98l.23.75H5l.62-2H8v-1H5.357a.505.505,0,0,0-.47.34L4,5.75a1,1,0,0,0-1,1v3H4v1a1,1,0,0,0,2,0v-1H9v1a1,1,0,0,0,2,0v-1h1v-3A1,1,0,0,0,11,5.75Zm-6,3a1,1,0,1,1,1-1A1,1,0,0,1,5,8.75Zm5,0a1,1,0,1,1,1-1A1,1,0,0,1,10,8.75Z"></path><path fill="#fff" transform="translate(2 2)" d="M12.175,4.5H9.47a.409.409,0,0,1-.341-.182l-.56-.841a.408.408,0,0,1,0-.454l.56-.841A.409.409,0,0,1,9.47,2h2.705a.409.409,0,0,1,.409.409V4.091A.409.409,0,0,1,12.175,4.5ZM9.2,2.833a.417.417,0,1,0,.416.417A.417.417,0,0,0,9.2,2.833Z"></path></svg>