<svg xmlns="http://www.w3.org/2000/svg" viewBox="0 0 23 23" height="23" width="23"><title>vechicle_shop_15.svg</title><rect fill="none" x="0" y="0" width="23" height="23"></rect><rect x="0" y="0" width="23" height="23" rx="11.5" ry="11.5" fill="#3289fa"></rect><path fill="#fff" transform="translate(2 2)" d="M14.85,7.8,14.51,7H13.44l.31.75H5.25L6.3,5.25H10v-1H6a.486.486,0,0,0-.44.28L4.15,7.79A1.508,1.508,0,0,0,3,9.25v3.5H4v1a1,1,0,0,0,2,0v-1h7v1a1,1,0,0,0,2,0v-1h1V9.25A1.5,1.5,0,0,0,14.85,7.8ZM5,11.25a1,1,0,1,1,1-1A1,1,0,0,1,5,11.25Zm9,0a1,1,0,1,1,1-1A1,1,0,0,1,14,11.25Z"></path><path fill="#fff" transform="translate(2 2)" d="M15.155,6.217H11.909A.493.493,0,0,1,11.5,6L10.828,4.99a.491.491,0,0,1,0-.545L11.5,3.436a.491.491,0,0,1,.409-.219h3.246a.491.491,0,0,1,.491.492V5.726A.491.491,0,0,1,15.155,6.217Zm-3.565-2a.5.5,0,1,0,.5.5A.5.5,0,0,0,11.59,4.217Z"></path></svg>