<svg xmlns="http://www.w3.org/2000/svg" viewBox="0 0 23 23" height="23" width="23"><title>viewpoint_15.svg</title><rect fill="none" x="0" y="0" width="23" height="23"></rect><rect x="1" y="1" rx="10.5" ry="10.5" width="21" height="21" stroke="#ffffff" style="stroke-linejoin:round;stroke-miterlimit:4;" fill="#ffffff" stroke-width="2"></rect><rect x="1" y="1" width="21" height="21" rx="10.5" ry="10.5" fill="#4f4f4f"></rect><path fill="#fff" transform="translate(4 4)" d="M10.35.64a1.25,1.25,0,0,0-.81.53,6.46,6.46,0,0,0-.77,2A26.47,26.47,0,0,0,8.17,6c0,.27.18.33.44.07.88-.83,1.75-1.7,2.6-2.55a3.85,3.85,0,0,0,.58-.7,1.37,1.37,0,0,0,.1-1.34,1.84,1.84,0,0,0-1.21-.8A.74.74,0,0,0,10.35.64ZM4.52.7a1.85,1.85,0,0,0-1.31.64,1.18,1.18,0,0,0-.1,1.24A6.65,6.65,0,0,0,4.49,4.29,26.25,26.25,0,0,0,6.56,6.16c.22.15.37,0,.27-.34Q6.42,4.07,6,2.31a4.34,4.34,0,0,0-.33-.87A1.33,1.33,0,0,0,4.52.7ZM1.07,6.06a1.22,1.22,0,0,0-.87.57A1.81,1.81,0,0,0,.1,8.07a1.18,1.18,0,0,0,1,.73,6.29,6.29,0,0,0,2.14-.36A27.74,27.74,0,0,0,6,7.6c.24-.11.18-.34-.17-.44-1.15-.35-2.31-.68-3.48-1a3.88,3.88,0,0,0-.9-.1A1.93,1.93,0,0,0,1.07,6.06Zm12.52,0a3.88,3.88,0,0,0-.9.1c-1.17.32-2.33.65-3.48,1-.35.1-.41.33-.17.44a27.74,27.74,0,0,0,2.68.84,6.29,6.29,0,0,0,2.14.36,1.18,1.18,0,0,0,1-.73,1.81,1.81,0,0,0-.1-1.44A1.33,1.33,0,0,0,13.59,6.06ZM6.73,8.64a.38.38,0,0,0-.17.07,26.63,26.63,0,0,0-2.07,1.9,6.36,6.36,0,0,0-1.38,1.68,1.18,1.18,0,0,0,.1,1.24,1.89,1.89,0,0,0,1.31.67,1.37,1.37,0,0,0,1.11-.77A4.31,4.31,0,0,0,6,12.59c.31-1.17.6-2.37.87-3.55C6.9,8.78,6.86,8.63,6.73,8.64Zm1.57.07a.2.2,0,0,0-.13.23,25.21,25.21,0,0,0,.6,2.71,6.6,6.6,0,0,0,.77,2.08,1.14,1.14,0,0,0,1.14.5,1.84,1.84,0,0,0,1.21-.8,1.37,1.37,0,0,0-.1-1.34,3.92,3.92,0,0,0-.58-.71c-.85-.85-1.72-1.68-2.6-2.51C8.48,8.75,8.38,8.69,8.3,8.71Z"></path></svg>