<svg xmlns="http://www.w3.org/2000/svg" viewBox="0 0 23 23" height="23" width="23"><title>watchtower_15.svg</title><rect fill="none" x="0" y="0" width="23" height="23"></rect><rect x="1" y="1" rx="10.5" ry="10.5" width="21" height="21" stroke="#ffffff" style="stroke-linejoin:round;stroke-miterlimit:4;" fill="#ffffff" stroke-width="2"></rect><rect x="1" y="1" width="21" height="21" rx="10.5" ry="10.5" fill="#4f4f4f"></rect><path fill="#fff" transform="translate(4 4)" d="M2.68,0V3.21h9.64V0H10.71V1.07H8.57V0H6.43V1.07H4.29V0Zm.53,4.29-.53,9.64H1.07V15H5.89c0-1.07.3-2.68,1.61-2.68S9.11,13.93,9.11,15h4.82V13.93H12.32l-.53-9.64ZM7.5,6.43A1,1,0,0,1,8.57,7.5V8.57H6.43V7.5A1,1,0,0,1,7.5,6.43Z"></path></svg>