<svg xmlns="http://www.w3.org/2000/svg" viewBox="0 0 23 23" height="23" width="23"><title>water-tower_15.svg</title><rect fill="none" x="0" y="0" width="23" height="23"></rect><rect x="1" y="1" rx="10.5" ry="10.5" width="21" height="21" stroke="#ffffff" style="stroke-linejoin:round;stroke-miterlimit:4;" fill="#ffffff" stroke-width="2"></rect><rect x="1" y="1" width="21" height="21" rx="10.5" ry="10.5" fill="#4f4f4f"></rect><path fill="#fff" transform="translate(4 4)" d="M2.14,0V3.75a3.78,3.78,0,0,0,2,3.35l-1,7.9H4.82L5,13.43,7.5,11.79,10,13.46l.2,1.54h1.61l-1-7.87a3.78,3.78,0,0,0,2-3.38V0H11.25V1.61h-.54a3.44,3.44,0,0,1-3.21,0,3.38,3.38,0,0,0-3.21,0H3.75V0ZM5.73,7.7a7.31,7.31,0,0,0,3.54,0l.21,1.68-2,1.3-2-1.3Zm-.34,2.68,1.31.87-1.54,1Zm4.22,0,.23,1.91-1.54-1Z"></path></svg>