<svg xmlns="http://www.w3.org/2000/svg" viewBox="0 0 23 23" height="23" width="23"><title>wilderness-hut_15.svg</title><rect fill="none" x="0" y="0" width="23" height="23"></rect><rect x="1" y="1" rx="10.5" ry="10.5" width="21" height="21" stroke="#ffffff" style="stroke-linejoin:round;stroke-miterlimit:4;" fill="#ffffff" stroke-width="2"></rect><rect x="1" y="1" width="21" height="21" rx="10.5" ry="10.5" fill="#4f4f4f"></rect><path fill="#fff" transform="translate(4 4)" d="M8.57,0V2.14L7.5,1.61,0,5.36V7.5l1.61-.7V15h1.6V6.11L7.5,4.29l1.07.45v4.9H4.82c0,1.77,0,3.63,0,5.36h5.36c0-3.16,0-6.37,0-9.57l1.61.68V15h1.6V6.8L15,7.5V5.36L10.18,3V0ZM7.5,11.79a1,1,0,0,1,1.07,1.07v1.07H6.43V12.86A1,1,0,0,1,7.5,11.79Z"></path></svg>