<svg xmlns="http://www.w3.org/2000/svg" viewBox="0 0 23 23" height="23" width="23"><title>windmill_15.svg</title><rect fill="none" x="0" y="0" width="23" height="23"></rect><rect x="1" y="1" rx="10.5" ry="10.5" width="21" height="21" stroke="#ffffff" style="stroke-linejoin:round;stroke-miterlimit:4;" fill="#ffffff" stroke-width="2"></rect><rect x="1" y="1" width="21" height="21" rx="10.5" ry="10.5" fill="#4f4f4f"></rect><path fill="#fff" transform="translate(4 4)" d="M2.91,0,1.07,1.84,6.39,6.43,1.07,11l1.84,1.84L7.5,7.54l4.59,5.32L13.93,11,8.61,6.43l5.32-4.59L12.09,0,7.5,5.32ZM7.5,2.14a2.78,2.78,0,0,0-1.14.24L7.5,3.68l1.14-1.3A2.66,2.66,0,0,0,7.5,2.14Zm0,3.75A.54.54,0,1,1,7,6.43.54.54,0,0,1,7.5,5.89Zm-3,.31,0,.5.3-.27Zm6,0-.26.23.3.27Zm-3,3L3.88,13.36,3.75,15h7.5l-.13-1.64Z"></path></svg>